<svg style="opacity: 0.8;" width="200" height="200" version="1.1" id="icon" xmlns="http://www.w3.org/2000/svg" xmlns:xlink="http://www.w3.org/1999/xlink" x="0px" y="0px"
   viewBox="0 0 1971.78 2341.26" style="enable-background:new 0 0 1971.78 2341.26;" xml:space="preserve">
<style type="text/css">
  .st0{fill:#FFFFFF;stroke:#382f91;stroke-width:44.1808;stroke-miterlimit:10;}
  .st1{fill:none;stroke:#2663bc;stroke-width:44.1808;stroke-miterlimit:10;}
  .st2{fill:none;stroke:#29abe2;stroke-width:44.1808;stroke-miterlimit:10;}
  .st3{fill:#FFFFFF;}
</style>
<line class="st0" x1="936.95" y1="15.62" x2="1956.16" y2="1034.83"/>
<line class="st0" x1="1940.54" y1="1019.26" x2="921.33" y2="2038.47"/>
<line class="st1" x1="936.95" y1="159.21" x2="1956.16" y2="1178.42"/>
<line class="st1" x1="1940.54" y1="1162.84" x2="921.33" y2="2182.06"/>
<line class="st2" x1="936.95" y1="302.8" x2="1956.16" y2="1322.01"/>
<line class="st2" x1="1940.54" y1="1306.43" x2="921.33" y2="2325.64"/>
<line class="st0" x1="1034.83" y1="2325.64" x2="15.62" y2="1306.43"/>
<line class="st0" x1="31.24" y1="1322.01" x2="1050.45" y2="302.8"/>
<line class="st1" x1="1034.83" y1="2182.06" x2="15.62" y2="1162.84"/>
<line class="st1" x1="31.24" y1="1178.42" x2="1050.45" y2="159.21"/>
<line class="st2" x1="1034.83" y1="2038.47" x2="15.62" y2="1019.26"/>
<line class="st2" x1="31.24" y1="1034.83" x2="1050.45" y2="15.62"/>
<path class="st3" d="M1223.49,997.71v-3.92c0-6.49-3.26-9.74-9.74-9.74H994.6c-6.49,0-9.74,3.25-9.74,9.74v77.91c0,6.5,3.25,9.74,9.74,9.74
  h109.09c3.9,0,5.84,1.95,5.84,5.84c0,18.84-0.97,35.23-2.92,49.19c-1.95,13.97-4.55,26.14-7.79,36.52
  c-9.1,27.27-25.01,47.89-47.73,61.85c-22.73,13.98-48.7,20.94-77.91,20.94c-33.77,0-60.72-7.62-80.84-22.89
  c-20.14-15.25-34.75-36.52-43.83-63.79c-1.95-5.84-3.74-12.66-5.36-20.45c-1.62-7.79-2.92-17.53-3.9-29.23
  c-0.97-11.69-1.62-25.81-1.95-42.37c-0.33-16.56-0.49-36.52-0.49-59.9c0-23.37,0.15-43.35,0.49-59.9
  c0.32-16.56,0.97-30.68,1.95-42.37c0.97-11.69,2.27-21.43,3.9-29.22c1.62-7.79,3.41-14.61,5.36-20.45
  c9.08-27.27,23.69-48.53,43.83-63.8c20.11-15.24,47.07-22.89,80.84-22.89c32.46,0,59.08,6.99,79.86,20.94
  c20.78,13.98,38.63,34.26,53.57,60.88c2.59,5.2,6.82,6.82,12.66,4.87l81.82-36.04c5.19-3.25,6.48-7.8,3.9-13.64
  c-7.16-18.16-17.21-35.87-30.19-53.08c-13-17.2-29.23-32.14-48.7-44.8c-19.48-12.67-41.88-22.89-67.21-30.68
  c-25.32-7.79-53.57-11.69-84.73-11.69c-59.09,0-109.08,13.48-149.99,40.42c-40.91,26.95-69.81,66.71-86.69,119.32
  c-3.25,10.39-6.01,20.79-8.27,31.17c-2.29,10.4-4.07,22.4-5.36,36.04c-1.31,13.64-2.28,29.71-2.92,48.21
  c-0.65,18.5-0.97,40.76-0.97,66.72c0,25.98,0.32,48.21,0.97,66.71c0.64,18.5,1.62,34.57,2.92,48.22c1.3,13.64,3.08,25.65,5.36,36.04
  c2.26,10.4,5.02,20.79,8.27,31.17c16.88,52.59,45.78,92.38,86.69,119.31c40.91,26.95,90.9,40.42,149.99,40.42
  c52.14,0,97.59-11.91,136.51-35.44v110.38c0,43.5-9.58,76.14-28.73,97.88c-19.16,21.77-46.26,32.63-81.32,32.63
  c-19.49,0-37.02-4.38-52.6-13.15c-15.58-8.77-27.6-18.02-36.04-27.76c-4.54-5.19-9.41-6.16-14.61-2.92l-71.1,53.57
  c-4.55,3.9-5.2,8.45-1.95,13.64c14.93,22.08,37.98,40.91,69.15,56.49c31.17,15.58,65.58,23.37,103.25,23.37
  c70.12,0,125.79-20.12,167.04-60.38c41.22-40.26,58.36-98.04,58.36-173.37C1222.1,1433.97,1224.82,999.32,1223.49,997.71z"/>
</svg>
