<svg width="99.99999999999999" height="99.99999999999999" xmlns="http://www.w3.org/2000/svg">
 <!-- Created with Method Draw - http://github.com/duopixel/Method-Draw/ -->

 <g>
  <title>background</title>
  <rect x="-1" y="-1" width="33.25" height="33.25" id="canvas_background" fill="none"/>
  <g id="canvasGrid" display="none">
   <rect id="svg_1" width="100%" height="100%" x="0" y="0" stroke-width="0" fill="url(#gridpattern)"/>
  </g>
 </g>
 <g>
  <title>Layer 1</title>
  <path fill="none" stroke="#000000" stroke-width="1.5" stroke-opacity="null" fill-opacity="null" id="svg_86" d="m47.05831,40.81413c0.16,0 0.16,0 0.16,0.16c0,0.16 0,0.16 0,0.32c0,0.32 0.0778,0.4518 0.16,0.8c0.07352,0.31144 0,0.64 0,0.8c0,0.16 0.11314,0.36686 0,0.48c-0.11314,0.11314 -0.29644,0.02769 -0.48,0.16c-0.29024,0.20919 -0.25504,0.24208 -0.64,0.48c-0.4304,0.266 -0.59095,0.23341 -0.8,0.32c-0.29564,0.12246 -0.64,0.16 -0.8,0.16c-0.32,0 -0.62057,0.07896 -1.12,0.16c-0.4738,0.07689 -0.96,0 -1.12,0c-0.32,0 -0.48,0 -0.8,0c-0.16,0 -0.32856,-0.07352 -0.64,0c-0.3482,0.0822 -0.43095,0.39341 -0.64,0.48c-0.14782,0.06123 -0.32,0 -0.48,0.16c-0.16,0.16 -0.32,0.32 -0.48,0.48c-0.16,0.16 -0.16,0.32 -0.32,0.32c-0.16,0 -0.16,0.16 -0.16,0.16c0,0.16 -0.04686,0.20686 -0.16,0.32c-0.11314,0.11314 -0.16,0.16 -0.16,0.16c0,0.16 -0.16,0.16 -0.16,0.16c0,0.16 -0.16,0.16 -0.16,0.32c0,0.16 -0.16,0.16 -0.16,0.16c0,0.16 -0.07341,0.43095 -0.16,0.64c-0.06123,0.14782 -0.16,0.32 -0.16,0.48c0,0.32 -0.07896,0.46057 -0.16,0.96c-0.05126,0.31587 0,0.48 0,0.64c0,0.16 0,0.32 0,0.48c0,0.32 0,0.48 0,0.64c0,0.16 0,0.32 0,0.64c0,0.16 0.16,0.32 0.16,0.48c0,0.16 0.07341,0.27095 0.16,0.48c0.06123,0.14782 -0.06123,0.33218 0,0.48c0.08659,0.20905 0.09877,0.33218 0.16,0.48c0.08659,0.20905 0.16,0.16 0.16,0.32c0,0.16 0.07341,0.11095 0.16,0.32c0.06123,0.14782 0.16,0.16 0.16,0.32c0,0.16 -0.03676,0.16428 0,0.32c0.0822,0.3482 0.3978,0.6118 0.48,0.96c0.03676,0.15572 0.09877,0.33218 0.16,0.48c0.08659,0.20905 0.32,0.32 0.48,0.48c0.16,0.16 0.3477,0.45644 0.48,0.64c0.20919,0.29024 0.32,0.48 0.48,0.64c0.16,0.16 0.33218,0.25877 0.48,0.32c0.20905,0.08659 0.65056,0.46043 0.96,0.64c0.49896,0.28955 0.7718,0.5578 1.12,0.64c0.15572,0.03676 0.17218,0.09877 0.32,0.16c0.20905,0.08659 0.27095,0.23341 0.48,0.32c0.14782,0.06123 0.36686,-0.11314 0.48,0c0.11314,0.11314 0.16,0.16 0.48,0.32c0,0 0.32,0.16 0.48,0.16c0.16,0 0.33218,0.09877 0.48,0.16c0.20905,0.08659 0.43095,0.23341 0.64,0.32c0.29564,0.12246 0.64,0 0.8,0c0.32,0 0.64,0 0.96,0c0.48,0 0.64,0 0.96,0c0.16,0 0.33218,0.06123 0.48,0c0.20905,-0.08659 0.2918,-0.2378 0.64,-0.32c0.31144,-0.07352 0.57877,-0.17218 0.64,-0.32c0.08659,-0.20905 0.32,-0.32 0.48,-0.48c0.16,-0.16 0.45191,-0.01566 0.64,-0.32c0.08412,-0.1361 0.16,-0.32 0.16,-0.48c0,-0.16 0.16,-0.32 0.16,-0.48c0,-0.16 0,-0.32 0,-0.48c0,-0.16 -0.16,-0.48 -0.32,-0.8c-0.16,-0.32 -0.39341,-0.59095 -0.48,-0.8c-0.06123,-0.14782 -0.16,-0.32 -0.32,-0.48c-0.16,-0.16 -0.11095,-0.39341 -0.32,-0.48c-0.14782,-0.06123 -0.27095,-0.23341 -0.48,-0.32c-0.14782,-0.06123 -0.23341,-0.11095 -0.32,-0.32c-0.06123,-0.14782 -0.32,-0.16 -0.32,-0.16c-0.16,0 -0.16,-0.16 -0.32,-0.16c-0.16,0 -0.32,-0.16 -0.32,-0.32l-0.16,0l-0.16,0"/>
  <path fill="none" stroke="#000000" stroke-width="1.5" stroke-opacity="null" fill-opacity="null" id="svg_87" d="m56.81832,40.01413c0,0 0.07341,0.11095 0.16,0.32c0.06123,0.14782 0,0.32 0,0.48c0,0.16 0,0.32 0.16,0.48l0,0.16l0,0.16l0,0.16"/>
  <path fill="none" stroke="#000000" stroke-width="1.5" stroke-opacity="null" fill-opacity="null" id="svg_91" d="m43.53831,61.29414c0,0.16 0.16,0.16 0.16,0.32c0,0.16 -0.05865,0.6436 0,1.12c0.0806,0.65475 0.16,1.44 0.16,1.92c0,0.48 0,0.96 0,1.44c0,0.48 -0.07895,0.78057 -0.16,1.28c-0.02563,0.15793 0,0.96 0,1.28c0,0.16 -0.0778,0.4518 -0.16,0.8c-0.11028,0.46716 0,0.8 0,1.28c0,0.16 -0.0778,0.4518 -0.16,0.8c-0.07352,0.31145 0,0.64001 0,0.96001c0,0.16 0.03676,0.32427 0,0.48c-0.0822,0.3482 -0.16,0.48 -0.16,0.64c0,0.48 0,0.8 0,0.95999c0,0.16 -0.0778,0.2918 -0.16,0.64001c-0.07352,0.31145 0,0.64001 0,0.96001c0,0.32 0,0.48 0,0.64c0,0.16 0,0.32 0.16,0.64c0.16,0.32001 0.27425,0.83388 0.64,1.28001c0.14346,0.175 0.36686,0.36686 0.48,0.48c0.11314,0.11314 0.16,0.16 0.32,0.32c0.16,0.16 0.43095,0.39342 0.64,0.48c0.29564,0.12247 0.48,0.16 0.64,0.16c0.32,0 0.64413,0.05126 0.96,0c0.49943,-0.08105 0.66976,-0.11081 0.96,-0.32c0.18356,-0.13231 0.32,-0.16 0.48,-0.32001c0.16,-0.16 0.46682,-0.2219 0.64,-0.64001c0.06123,-0.14783 0.25878,-0.33218 0.32,-0.48c0.08659,-0.20905 0.39341,-0.27095 0.48,-0.48c0.06123,-0.14782 0.09877,-0.33218 0.16,-0.48c0.08659,-0.20905 0.09877,-0.33218 0.16,-0.48c0.08659,-0.20905 0.2378,-0.2918 0.32,-0.64c0.03676,-0.15572 0.16,-0.32001 0.16,-0.48c0,-0.32 0.16,-0.48 0.16,-0.64001c0,-0.16 0,-0.32 0,-0.48c0,-0.16 0.0778,-0.29179 0.16,-0.63999c0.03676,-0.15572 0.16,-0.48 0.16,-0.64001c0,-0.32 0.12324,-0.64428 0.16,-0.8c0.0822,-0.3482 0.2378,-0.45181 0.32,-0.8c0.03676,-0.15572 0.23341,-0.27094 0.32,-0.48c0.06123,-0.14782 0.29191,-0.17566 0.48,-0.48c0.08412,-0.1361 0.11095,-0.23341 0.32,-0.32c0.14782,-0.06123 0.48,0 0.64,0c0.16,0 0.39341,-0.04905 0.48,0.16c0.06123,0.14782 0.23341,0.43095 0.32,0.64c0.12246,0.29564 0.23341,0.59095 0.32,0.8c0.06123,0.14782 -0.12246,0.50436 0,0.8c0.08659,0.20905 0.16,0.32 0.16,0.64c0,0.16 0,0.48 0,0.64c0,0.32 0.16,0.64001 0.16,0.96001c0,0.32001 0.09877,0.65218 0.16,0.8c0.08659,0.20905 0.20686,0.20686 0.32,0.32c0.11313,0.11314 0.0778,0.2918 0.16,0.64c0.03676,0.15572 0.09877,0.33218 0.16,0.48c0.08659,0.20905 0.32,0.16 0.48,0.32001c0,0 0.04872,0.0751 0.64,0.32c0.20905,0.08659 0.29644,0.34769 0.48,0.48c0.29024,0.20919 0.75095,0.39341 0.96,0.48c0.14782,0.06123 0.32,0.16 0.48,0.16c0.32,0 0.64,0 0.8,0c0.31999,0 0.49217,-0.09876 0.64,-0.16c0.20905,-0.08659 0.31999,-0.32 0.48,-0.48c0.16,-0.16 0.20687,-0.36686 0.32001,-0.48c0.11313,-0.11314 0.09877,-0.17218 0.16,-0.32c0.08659,-0.20905 0.13437,-0.48206 0.16,-0.64001c0.08105,-0.49944 0.16,-0.8 0.16,-1.12c0,-0.32 0,-0.8 0,-0.96001c0,-0.32 0,-0.64 0,-0.8c0,-0.32 -0.0778,-0.45181 -0.16,-0.8c-0.07352,-0.31144 -0.07341,-0.59095 -0.16,-0.8c-0.06123,-0.14782 0,-0.32 0,-0.64c0,-0.32 0.18369,-0.67654 0,-1.12c-0.08659,-0.20905 -0.13437,-0.48207 -0.16,-0.64c-0.08105,-0.49943 -0.03754,-0.66436 -0.16,-0.96c-0.08659,-0.20905 -0.09877,-0.33218 -0.16,-0.48c-0.08659,-0.20905 -0.20686,-0.36686 -0.32,-0.48c-0.11314,-0.11314 0.06123,-0.33218 0,-0.48c-0.08659,-0.20905 -0.23341,-0.27094 -0.32,-0.48c-0.06123,-0.14782 -0.0778,-0.29181 -0.16,-0.64c-0.03677,-0.15572 -0.0778,-0.2918 -0.16,-0.64c-0.03677,-0.15572 -0.07341,-0.43095 -0.16,-0.64c-0.06123,-0.14782 0.06123,-0.33218 0,-0.48c-0.08659,-0.20905 -0.16,-0.32 -0.16,-0.48c0,-0.16 -0.07341,-0.27095 -0.16,-0.48c-0.06123,-0.14782 0,-0.32 0,-0.32c0,-0.16 0,-0.32 0,-0.48c0,0 0,-0.16 0,-0.32c0,0 0,-0.16 0,-0.32c0,-0.16 0.06123,-0.17218 0,-0.32c-0.08659,-0.20905 -0.16,-0.32 -0.16,-0.48c0,-0.16 0,-0.48 0,-0.8c0,-0.16 0,-0.32 0,-0.48c0,-0.32 0,-0.48 0.16,-0.48l0,-0.16l0,-0.16l0,0"/>
  <path fill="none" stroke="#000000" stroke-width="1.5" stroke-opacity="null" fill-opacity="null" id="svg_95" d="m44.81831,53.13413c0,0 0.16,0 0.32,0c0.48,0 1.12661,0.13556 1.76,0.32c0.48579,0.14146 0.89504,0.40208 1.28,0.64c0.4304,0.266 0.80428,0.28324 0.96,0.32c0.3482,0.0822 0.49218,0.25877 0.64,0.32c0.20905,0.08659 0.48,0.32 0.64,0.32l0.16,0.32l0,0.16l0.16,0"/>
  <path fill="none" stroke="#000000" stroke-width="1.5" stroke-opacity="null" fill-opacity="null" id="svg_101" d="m59.05833,60.01414c0,-0.48 -0.10252,-0.96826 0,-1.6c0.08105,-0.49944 0.24312,-1.2862 0.32001,-1.76c0.08104,-0.49943 0.24648,-0.96856 0.31999,-1.28c0.0822,-0.3482 0.19754,-0.50436 0.32001,-0.8c0.08659,-0.20905 0.19754,-0.50436 0.31999,-0.8c0.08659,-0.20905 0.16,-0.48 0.32001,-0.64c0.16,-0.16 0.23341,-0.27095 0.32,-0.48c0.06123,-0.14782 0,-0.32 0,-0.48l0.16,0l0,0"/>
  <path d="m60.61483,53.143c0,-0.14706 0,-0.14706 0,-0.29412c0,0 0,-0.14706 0,-0.44118c0,0 0.14706,-0.14706 0.29412,-0.29412c0.14706,-0.14706 0.33184,-0.41132 0.44118,-0.58823c0.24449,-0.39559 0.44117,-0.73529 0.58823,-1.02941c0.14706,-0.29412 0.20865,-0.64983 0.44118,-0.88235c0.23252,-0.23252 0.38392,-0.4646 0.58823,-0.88235c0.23296,-0.47631 0.39596,-0.76265 0.58823,-1.02941c0.1216,-0.16872 0.34503,-0.39787 0.58823,-0.73529c0.19227,-0.26676 0.50233,-0.70016 0.73529,-1.17647c0.20432,-0.41776 0.47415,-0.86806 0.58824,-1.17647c0.21037,-0.56867 0.31115,-0.87703 0.44117,-1.32353c0.16953,-0.58216 0.37051,-1.0351 0.44118,-1.47058c0.07449,-0.45904 0.29412,-0.73529 0.29412,-1.17647c0,-0.44118 0,-0.73529 0,-1.17647c0,-0.29412 0,-0.73529 0,-1.02941c0,-0.44118 -0.21857,-0.85643 -0.29412,-1.17647c-0.10136,-0.42937 -0.0345,-0.61062 -0.14706,-0.88235c-0.07959,-0.19214 -0.24701,-0.44497 -0.29412,-0.73529c-0.07449,-0.45904 -0.44117,-0.73529 -0.58823,-1.02941c-0.14706,-0.29412 -0.33183,-0.55838 -0.44117,-0.73529c-0.24449,-0.39559 -0.29412,-0.58823 -0.58823,-0.88235c-0.14706,-0.14706 -0.30198,-0.22655 -0.58823,-0.29412c-0.32004,-0.07555 -0.58824,-0.29412 -1.02941,-0.44118c-0.44118,-0.14706 -0.85643,-0.36563 -1.17647,-0.44118c-0.42937,-0.10136 -0.69021,-0.21453 -0.88235,-0.29412c-0.27173,-0.11255 -0.58823,-0.14706 -1.02941,-0.14706c-0.29412,0 -0.58823,0 -0.73529,0c-0.14706,0 -0.30199,-0.06757 -0.58823,0c-0.32004,0.07555 -0.58823,0.29412 -0.88235,0.44118c-0.29412,0.14706 -0.56242,0.16145 -0.73529,0.44118c-0.07731,0.1251 -0.21453,0.24903 -0.29412,0.44118c-0.11255,0.27173 -0.07151,0.70938 -0.14706,1.02941c-0.10136,0.42937 0.14706,0.58824 0.14706,0.88235c0,0.14706 0.14706,0.29412 0.29412,0.44118c0.29412,0.29412 0.44117,0.44118 0.58823,0.58824c0.14706,0.14706 0.59943,0.23784 0.73529,0.29412c0.19214,0.07959 0.39609,0.36159 0.58823,0.44118c0.13587,0.05628 0.22782,0.28753 0.73529,0.44118c0.14075,0.04261 0.44117,0.29412 0.58823,0.44118c0.14706,0.14706 0.32147,0.24891 0.58823,0.44118c0.16872,0.1216 0.29412,0.29412 0.44118,0.44118c0.29412,0.29412 0.44118,0.58823 0.58823,0.73529c0.14706,0.14706 0.26033,0.29805 0.29412,0.44118c0.07555,0.32004 0.14706,0.44118 0.14706,0.73529c0,0.29412 0,0.58823 0,0.73529c0,0.29412 -0.09079,0.45237 -0.14706,0.58823c-0.07959,0.19214 -0.18156,0.46357 -0.29412,0.73529c-0.07959,0.19214 -0.29412,0.29412 -0.58823,0.44118c-0.29412,0.14706 -0.56232,0.36562 -0.88235,0.44117c-0.14313,0.03379 -0.58824,0.14706 -0.73529,0.14706c-0.14706,0 -0.29412,0 -0.58823,0c-0.44118,0 -0.74649,-0.23784 -0.88235,-0.29412c-0.19214,-0.07959 -0.26321,-0.45271 -0.44117,-0.88235c-0.12584,-0.3038 -0.44118,-0.73529 -0.44118,-1.02941c0,-0.29412 0,-0.44117 0,-0.73529l0,-0.14706" id="svg_2" fill-opacity="null" stroke-opacity="null" stroke-width="1.5" stroke="#000000" fill="none"/>
  <path d="m58.85012,37.1136c-0.14706,0 -0.15825,0.09078 -0.29412,0.14706c-0.19214,0.07959 -0.21453,0.39609 -0.29412,0.58823c-0.11255,0.27173 -0.21453,0.54315 -0.29412,0.73529c-0.05628,0.13586 -0.21453,0.24903 -0.29412,0.44118c-0.05628,0.13587 -0.10374,0.34503 -0.44118,0.58824c-0.26676,0.19227 -0.59977,0.26321 -1.02941,0.44118c-0.3038,0.12584 -0.58823,0.14706 -1.02941,0.29412c-0.44118,0.14706 -0.87703,0.1641 -1.32353,0.29412c-0.58216,0.16953 -1.02941,0.14706 -1.61765,0.14706c-0.58823,0 -1.02941,0 -1.47059,0c-0.29412,0 -0.73529,0 -1.02941,0c-0.44117,0 -0.58823,0 -1.02941,0c-0.44118,0 -0.88843,-0.12459 -1.47059,-0.29412c-0.4465,-0.13002 -0.74683,-0.26322 -1.17647,-0.44118c-0.30381,-0.12584 -0.76265,-0.24891 -1.02941,-0.44118c-0.33743,-0.24321 -0.745,-0.42319 -1.02941,-0.58824c-0.4586,-0.26614 -0.76075,-0.56658 -0.88235,-0.73529c-0.19227,-0.26676 -0.31533,-0.72561 -0.44117,-1.02941c-0.17796,-0.42964 -0.51269,-0.85643 -0.58824,-1.17647c-0.03379,-0.14312 -0.14706,-0.29412 -0.29412,-0.58823c-0.14706,-0.29412 -0.29412,-0.58824 -0.29412,-0.88235c0,-0.44118 -0.14706,-0.73529 -0.14706,-1.17647c0,-0.44118 0,-0.88235 0,-1.32353c0,-0.44118 -0.14706,-0.88235 -0.14706,-1.32353c0,-0.44118 0,-0.73529 0,-0.88235c0,-0.44118 0,-0.73529 0,-1.17647c0,-0.44118 0,-0.88235 0,-1.17647c0,-0.44118 0.07151,-0.85643 0.14706,-1.17647c0.10136,-0.42937 0.11615,-0.89388 0.29412,-1.32353c0.12584,-0.3038 0.29412,-0.58823 0.44117,-0.88235c0.14706,-0.29412 0.29412,-0.73529 0.44118,-1.02941c0.14706,-0.29412 0.46663,-0.56658 0.58823,-0.73529c0.19227,-0.26676 0.20866,-0.50277 0.44118,-0.73529c0.23252,-0.23252 0.52853,-0.36956 0.88235,-0.58823c0.39559,-0.24449 0.73529,-0.29412 1.02941,-0.44118c0.29412,-0.14706 0.59204,-0.24701 0.88235,-0.29412c0.45903,-0.07449 0.86879,-0.22003 1.47058,-0.29412c0.43787,-0.0539 0.58823,0 1.02941,0c0.44118,0 1.02941,-0.14706 1.61765,-0.14706c0.44118,0 0.88235,0 1.17647,0c0.44117,0 0.88235,0.14706 1.17647,0.14706c0.29412,0 0.54315,0.21453 0.73529,0.29412c0.27173,0.11255 0.74683,0.11616 1.17647,0.29412c0.30381,0.12584 0.59217,0.40739 0.73529,0.44118c0.32004,0.07555 0.61062,0.18156 0.88235,0.29412c0.19214,0.07959 0.2682,0.21857 0.58823,0.29412c0.28625,0.06757 0.58823,0.14706 0.88235,0.29412c0.29412,0.14706 0.41952,0.31957 0.58823,0.44118c0.26677,0.19228 0.44118,0.44118 0.58824,0.58823c0.29412,0.29412 0.29412,0.44118 0.44117,0.73529c0.14706,0.29412 0.19669,0.63382 0.44118,1.02941c0.10934,0.17691 0.29412,0.44118 0.29412,0.73529c0,0.29412 0,0.58823 0,0.73529c0,0.44118 0.14706,0.44118 0.14706,0.73529c0,0.14706 0,0.44118 0,0.73529c0,0.44118 0,0.73529 0,1.02941c0,0.14706 0,0.58824 0,0.88235c0,0.14706 0.06747,0.24903 0.14706,0.44118c0.05628,0.13586 0,0.29412 0,0.44118l0,0.14706l0,0.14706" id="svg_4" fill-opacity="null" stroke-opacity="null" stroke-width="1.5" stroke="#000000" fill="none"/>
  <path d="m74.43835,25.64302c0.14706,0 0.14706,0 0.29411,0c0.14706,0 0.44904,0.07948 0.73531,0.14706c0.32003,0.07555 0.88235,0.14706 1.17647,0.14706c0.29411,0 0.44118,0.14706 0.73529,0.14706c0.14706,0 0.29412,0 0.58823,0l0.14706,0.14706l0.14706,0l0.14706,0" id="svg_6" fill-opacity="null" stroke-opacity="null" stroke-width="1.5" stroke="#000000" fill="none"/>
  <path d="m74.43835,25.64302c0,-0.14706 0,-0.29412 0,-0.58824c0,-0.29412 0,-0.73529 0,-1.32353c0,-0.44118 -0.10136,-0.89415 0,-1.32353c0.07555,-0.32004 0.14706,-0.58823 0.14706,-0.88235c0,-0.29412 0.06747,-0.54315 0.14706,-0.73529c0.11256,-0.27173 0.11327,-0.59217 0.14706,-0.73529c0.07555,-0.32004 0.18156,-0.46356 0.29412,-0.73529c0.07959,-0.19214 0.23785,-0.45237 0.29412,-0.58823c0.15917,-0.38428 0.39913,-0.61936 0.73529,-1.02941c0.26371,-0.32167 0.36159,-0.54315 0.44118,-0.73529c0.05627,-0.13587 0.10184,-0.32147 0.29411,-0.58823c0.1216,-0.16872 0.44118,-0.29412 0.7353,-0.58823c0.14706,-0.14706 0.27246,-0.17251 0.44118,-0.29412c0.26676,-0.19227 0.3961,-0.21453 0.58823,-0.29412c0.40759,-0.16883 0.5961,-0.07949 0.88235,-0.14706c0.32005,-0.07555 0.44904,-0.22654 0.73531,-0.29412c0.32003,-0.07555 0.46355,-0.03451 0.73529,-0.14706c0.19215,-0.07959 0.44118,-0.14706 0.58823,-0.14706c0.29412,0 0.61063,0.11256 0.88235,0c0.19215,-0.07959 0.44118,-0.14706 0.58823,-0.14706c0.29412,0 0.74316,-0.06757 1.02941,0c0.32004,0.07555 0.58823,0.29412 0.88235,0.29412c0.29411,0 0.44118,0.14706 0.58823,0.14706c0.29411,0 0.58823,0.14706 0.88235,0.29412c0.29411,0.14706 0.46356,0.18156 0.73529,0.29412c0.19214,0.07959 0.30531,0.23784 0.44118,0.29412c0.19214,0.07959 0.29411,0.29412 0.44118,0.44118c0.29411,0.29411 0.46663,0.41952 0.58823,0.58823c0.19228,0.26676 0.2489,0.46853 0.44118,0.73529c0.1216,0.16871 0.36562,0.56232 0.44117,0.88235c0.06757,0.28625 0.03452,0.61062 0.14706,0.88235c0.15917,0.38428 0.29411,0.58823 0.29411,0.88235c0,0.29412 0,0.58823 0,0.88235c0,0.29412 0,0.58823 0,0.73529c0,0.29412 0,0.58823 0,0.88235c0,0.29412 -0.07151,0.56232 -0.14706,0.88235c-0.06757,0.28625 -0.07151,0.41526 -0.14706,0.73529c-0.10136,0.42938 -0.21857,0.70937 -0.29412,1.02941c-0.06757,0.28625 -0.06747,0.54315 -0.14706,0.73529c-0.05627,0.13586 -0.09078,0.45237 -0.14706,0.58823c-0.15918,0.38428 -0.26035,0.44511 -0.29412,0.58824c-0.07555,0.32004 -0.14706,0.44117 -0.29412,0.58823c-0.14706,0.14706 -0.19012,0.19013 -0.29411,0.29412c-0.10399,0.10399 -0.15825,0.23784 -0.29412,0.29412c-0.19214,0.07959 -0.33717,0.19013 -0.44117,0.29412c-0.10399,0.10399 -0.29411,0.14706 -0.29411,0.14706c0,0.14706 -0.14706,0.14706 -0.29412,0.14706c0,0 -0.19012,0.04307 -0.29411,0.14706c-0.10399,0.10399 -0.14706,0.29412 -0.29412,0.29412c-0.14706,0 -0.14706,0 -0.29411,0.14706c-0.14706,0.14706 -0.19013,0.19013 -0.29412,0.29412c-0.10398,0.10398 -0.29411,0.14706 -0.44118,0.14706c-0.14706,0 -0.14706,0.14706 -0.29411,0.29412c-0.14706,0.14706 -0.29412,0.14706 -0.44118,0.29412c-0.14706,0.14706 -0.24904,0.36159 -0.44118,0.44118c-0.13586,0.05628 -0.14706,0.14706 -0.29411,0.29412c0,0 0.05627,0.15825 0,0.29412c-0.07959,0.19215 -0.10197,0.36159 -0.29411,0.44118c-0.13586,0.05628 -0.29412,0.14706 -0.29412,0.14706c-0.14706,0.14706 -0.14706,0.29412 -0.29411,0.44118c-0.14706,0.14706 -0.36563,0.2682 -0.44118,0.58824c-0.03378,0.14313 -0.14706,0.29412 -0.14706,0.44118c0,0.14706 -0.14706,0.29412 -0.14706,0.58824c0,0.29412 -0.14706,0.58823 -0.14706,0.73529c0,0 -0.03451,0.16945 -0.14706,0.44118c-0.07959,0.19214 -0.14706,0.29412 -0.14706,0.44118c0,0.14706 -0.44118,0.58823 -0.44118,0.88235c0,0.14706 0.05627,0.30531 0,0.44118c-0.07959,0.19214 -0.14706,0.29412 -0.14706,0.44118c0,0.29412 -0.06747,0.39609 -0.14706,0.58824c-0.11256,0.27173 0,0.44118 0,0.58823c0,0.29412 0,0.44118 0,0.58824c0,0.14706 0,0.29412 0,0.44118l0,0.14706l-0.14706,0l0,-0.14706" id="svg_7" fill-opacity="null" stroke-opacity="null" stroke-width="1.5" stroke="#000000" fill="none"/>
  <path d="m77.96774,26.08419c0,-0.14706 0,-0.29412 0,-0.44118c0,-0.14706 0,-0.44118 0,-0.44118c0.14706,-0.14706 0.14706,-0.29412 0.14706,-0.44118c0,-0.14706 0.21452,-0.24903 0.29411,-0.44118c0.05627,-0.13586 0.06747,-0.39609 0.14706,-0.58823c0.05627,-0.13586 0.06747,-0.24903 0.14706,-0.44118c0.05627,-0.13586 0.09078,-0.30531 0.14706,-0.44118c0.07959,-0.19214 0.31956,-0.41952 0.44118,-0.58823c0.19227,-0.26676 0.09078,-0.45237 0.14706,-0.58823c0.07959,-0.19214 0.23785,-0.15825 0.29411,-0.29412c0.07961,-0.19214 0.2682,-0.21857 0.58823,-0.29412c0.28625,-0.06757 0.30531,-0.09078 0.44118,-0.14706c0.19214,-0.07959 0.24903,-0.21453 0.44118,-0.29412c0.13586,-0.05627 0.29411,0 0.44117,0c0.29412,0 0.58823,-0.14706 0.88235,-0.14706c0.14706,0 0.44118,0 0.58823,0c0.14706,0 0.32146,-0.04521 0.58823,0.14706c0.16872,0.1216 0.31651,0.03451 0.58823,0.14706c0.19215,0.07959 0.2168,0.31608 0.29411,0.44118c0.17287,0.27972 0.31956,0.41952 0.44118,0.58823c0.19228,0.26676 0.21452,0.39609 0.29411,0.58823c0.05627,0.13587 0,0.44118 0,0.73529c0,0.14706 0,0.44118 0,0.58823c0,0.29412 -0.09077,0.59943 -0.14706,0.73529c-0.07959,0.19214 -0.29412,0.29412 -0.44118,0.58823c-0.14706,0.29412 -0.15826,0.3849 -0.29411,0.44118c-0.19215,0.07959 -0.29412,0.44118 -0.44118,0.58823c-0.29412,0.29412 -0.44118,0.44118 -0.58823,0.58824c-0.14706,0.14706 -0.19013,0.19013 -0.29412,0.29412c-0.10398,0.10398 -0.30531,0.09078 -0.44118,0.14706c-0.38428,0.15918 -0.46355,0.32862 -0.73529,0.44118c-0.19214,0.07959 -0.28033,0.16227 -0.44118,0.29412c-0.41005,0.33616 -0.76264,0.39596 -1.02941,0.58823c-0.33743,0.24321 -0.45557,0.41536 -0.73529,0.58823c-0.1251,0.07732 -0.24904,0.21453 -0.44118,0.29412c-0.13586,0.05628 -0.15826,0.09078 -0.29412,0.14706c-0.19215,0.07959 -0.14706,0.29412 -0.29411,0.29412c-0.14706,0 -0.14706,0.29412 -0.44118,0.58824c-0.14706,0.14706 -0.21453,0.24903 -0.29412,0.44118c-0.05627,0.13586 -0.07948,0.30198 -0.14706,0.58823c-0.07555,0.32004 -0.21452,0.3961 -0.29411,0.58824c-0.05627,0.13586 0,0.29412 0,0.44118c0,0.14706 -0.04308,0.19013 -0.14706,0.29412c-0.10399,0.10399 0,0.29412 0,0.44118c0,0.14706 0,0.29412 0,0.44118c0,0.14706 0,0.44118 0,0.58824c0,0 0.05627,0.15825 0,0.29412c-0.07959,0.19214 -0.15825,0.23784 -0.29411,0.29412c-0.19215,0.07959 -0.19014,0.19013 -0.29412,0.29412c-0.10399,0.10399 0,0.29412 0,0.29412c0,0.14706 0,0.29412 0,0.29412c0,0.14706 0,0.29412 -0.14706,0.29412c0,0 0,0.14706 0,0.14706c0,0.14706 0,0.29412 0,0.29412c0,0.14706 0.03379,0.15099 0,0.29412c-0.07555,0.32004 -0.21857,0.2682 -0.29412,0.58823c-0.03378,0.14312 0,0.29412 0,0.44118c0,0.14706 0,0.29412 0,0.44118c0,0.29412 0.06747,0.54315 0.14706,0.73529c0.05627,0.13586 0.06747,0.10198 0.14706,0.29412c0.05627,0.13586 -0.10399,0.33719 0,0.44118c0.10398,0.10398 0.44118,0 0.73529,0c0.14706,0 0.44118,0 1.02941,0c0.14706,0 0.44118,0 0.58823,0c0.14706,0 0.29806,-0.03379 0.44118,0c0.32005,0.07555 0.58823,0.14706 0.73531,0.14706l0.14706,0l0.14706,0.14706l0,0" id="svg_8" fill-opacity="null" stroke-opacity="null" stroke-width="1.5" stroke="#000000" fill="none"/>
  <path d="m79.5854,42.55477c0,-0.14706 -0.14706,-0.29412 -0.44117,-0.29412c-0.29412,0 -0.56232,0.07151 -0.88235,0.14706c-0.14312,0.03379 -0.27246,0.02546 -0.44118,0.14706c-0.26675,0.19227 -0.61559,0.2489 -0.88235,0.44118c-0.50614,0.36481 -0.84031,0.76642 -1.17647,1.17647c-0.13185,0.16084 -0.29411,0.29412 -0.29411,0.58824c0,0.14706 0,0.44117 0,0.88235c0,0.44118 -0.16883,0.91593 0,1.32353c0.15917,0.38428 0.64983,0.64984 0.88235,0.88235c0.23252,0.23252 0.29412,0.44118 0.44118,0.58824c0.14706,0.14706 0.29412,0.14706 0.44118,0.14706c0.29412,0 0.58823,0.14706 0.88235,0.14706c0.29411,0 0.70016,-0.20822 1.17648,-0.44118c0.41776,-0.20432 0.79689,-0.20865 1.02941,-0.44118c0.23251,-0.23252 0.31956,-0.41951 0.44118,-0.58823c0.19228,-0.26676 0.17251,-0.56658 0.29411,-0.73529c0.19228,-0.26677 0.09079,-0.59943 0.14706,-0.73529c0.07959,-0.19214 0.14706,-0.29412 0.14706,-0.58823c0,-0.29412 0.05627,-0.45237 0,-0.58823c-0.07959,-0.19214 -0.24891,-0.46853 -0.44118,-0.73529c-0.1216,-0.16871 -0.36159,-0.39609 -0.44118,-0.58823c-0.05627,-0.13587 -0.14706,-0.29412 -0.29411,-0.58823l-0.14706,0" id="svg_9" fill-opacity="null" stroke-opacity="null" stroke-width="1.5" stroke="#000000" fill="none"/>
  <path d="m20.32074,36.81948c0,-0.14706 0.30565,-0.11616 0.73529,-0.29412c0.3038,-0.12584 0.70938,-0.36563 1.02941,-0.44118c0.28625,-0.06757 0.29412,-0.14706 0.58823,-0.14706c0.14706,0 0.60779,-0.08375 1.17647,-0.29412c0.30841,-0.11409 0.73529,-0.44118 1.02941,-0.58824c0.29412,-0.14706 0.45237,-0.09078 0.58824,-0.14706c0.19214,-0.07959 0.44118,-0.14706 0.73529,-0.14706c0.14706,0 0.29412,0 0.44118,-0.14706l0,0" id="svg_12" fill-opacity="null" stroke-opacity="null" stroke-width="1.5" stroke="#000000" fill="none"/>
  <path d="m21.05604,36.52536c-0.14706,-0.14706 -0.44118,-0.44118 -0.58824,-0.73529c-0.14706,-0.29412 -0.36563,-0.41526 -0.44118,-0.73529c-0.03379,-0.14312 -0.14706,-0.29412 -0.29412,-0.58824c-0.14706,-0.29412 -0.26033,-0.59217 -0.29412,-0.73529c-0.07555,-0.32004 -0.2683,-0.45557 -0.44118,-0.73529c-0.15463,-0.25019 -0.14706,-0.58823 -0.29412,-0.88235c-0.14706,-0.29412 -0.11616,-0.59977 -0.29412,-1.02941c-0.12584,-0.3038 -0.22654,-0.5961 -0.29412,-0.88235c-0.07555,-0.32004 -0.26321,-0.59977 -0.44118,-1.02941c-0.12584,-0.3038 -0.20889,-0.74791 -0.29412,-1.02941c-0.15365,-0.50748 -0.44118,-0.73529 -0.58823,-1.02941c-0.14706,-0.29412 -0.26033,-0.59217 -0.29412,-0.73529c-0.07555,-0.32004 -0.29412,-0.44118 -0.44118,-0.73529c-0.14706,-0.29412 -0.21857,-0.41526 -0.29412,-0.73529c-0.03379,-0.14313 -0.22003,-0.42762 -0.29412,-1.02941c-0.01797,-0.14596 -0.07948,-0.30199 -0.14706,-0.58823c-0.07555,-0.32004 -0.18156,-0.61062 -0.29412,-0.88235c-0.07959,-0.19214 -0.17251,-0.41952 -0.29412,-0.58823c-0.19227,-0.26676 -0.17251,-0.41952 -0.29412,-0.58823c-0.19227,-0.26676 -0.16828,-0.43149 -0.29412,-0.73529c-0.17796,-0.42964 -0.29412,-0.58823 -0.44118,-0.88235c-0.14706,-0.29412 -0.18156,-0.61062 -0.29412,-0.88235c-0.07959,-0.19214 -0.36563,-0.41526 -0.44118,-0.73529c-0.03379,-0.14312 -0.09078,-0.45237 -0.14706,-0.58823c-0.07959,-0.19214 -0.11327,-0.29805 -0.14706,-0.44118c-0.07555,-0.32004 -0.10147,-0.34375 0.29412,-0.58824c0.17691,-0.10934 0.27626,-0.36668 0.73529,-0.44118c0.14516,-0.02356 0.44118,-0.14706 0.88235,-0.29412c0.44118,-0.14706 0.86298,-0.33656 1.47059,-0.58823c0.42964,-0.17796 0.70937,-0.36563 1.02941,-0.44118c0.28625,-0.06757 0.5961,-0.07948 0.88235,-0.14706c0.32004,-0.07555 0.7471,-0.0457 1.17647,-0.14706c0.32004,-0.07555 0.70938,-0.21857 1.02941,-0.29412c0.28625,-0.06757 0.54315,-0.06747 0.73529,-0.14706c0.13587,-0.05628 0.44118,-0.14706 0.73529,-0.14706c0.29412,0 0.54315,-0.21453 0.73529,-0.29412c0.27173,-0.11255 0.48425,0.10399 0.58823,0c0.10399,-0.10399 0.14706,-0.14706 0.29412,-0.14706c0.14706,0 0.17251,0.27246 0.29412,0.44118c0.19227,0.26676 0.16828,0.43149 0.29412,0.73529c0.17796,0.42964 0.07948,0.74316 0.14706,1.02941c0.07555,0.32004 0.14706,0.58824 0.14706,0.88235c0,0.29412 0.07151,0.56232 0.14706,0.88235c0.06757,0.28625 0,0.58823 0,0.88235c0,0.44118 0,0.73529 0,1.02941c0,0.44118 -0.06757,0.74316 0,1.02941c0.07555,0.32004 0.14706,0.73529 0.14706,1.02941c0,0.44118 0.02122,0.87267 0.14706,1.17647c0.17796,0.42964 0.29412,0.73529 0.29412,1.02941c0,0.29412 0.14706,0.44118 0.14706,0.73529c0,0.29412 0,0.44118 0,0.7353c0,0.29412 0.21963,0.57038 0.29412,1.02941c0.04711,0.29032 0.07948,0.5961 0.14706,0.88235c0.07555,0.32004 0.21857,0.56232 0.29412,0.88235c0.06757,0.28625 0.07948,0.5961 0.14706,0.88235c0.07555,0.32004 0.21857,0.41526 0.29412,0.73529c0.06758,0.28625 0.11327,0.44511 0.14706,0.58824c0.07555,0.32004 0.09078,0.59943 0.14706,0.73529c0.07959,0.19214 0.21453,0.3961 0.29412,0.58824c0.11255,0.27173 0.09078,0.59943 0.14706,0.73529c0.07959,0.19214 0.29412,0.44118 0.29412,0.58824c0,0.14706 0.14706,0.29412 0.14706,0.44118c0,0.14706 0.02546,0.27246 0.14706,0.44118c0.19227,0.26676 0.14706,0.44118 0.14706,0.58823c0,0.14706 0.14706,0.14706 0.14706,0.29412l0,0.14706l0.14706,0.14706" id="svg_13" fill-opacity="null" stroke-opacity="null" stroke-width="1.5" stroke="#000000" fill="none"/>
  <path d="m27.08544,33.29007c0,0.14706 0.14706,0.14706 0.14706,0.14706c0,0.14706 0,0.29412 -0.14706,0.44118c0,0 -0.10198,0.36159 -0.29412,0.44118c-0.13586,0.05628 -0.30199,0.07948 -0.58824,0.14706c-0.32004,0.07555 -0.44118,0.44118 -0.58823,0.44118l-0.14706,0" id="svg_14" fill-opacity="null" stroke-opacity="null" stroke-width="1.5" stroke="#000000" fill="none"/>
  <path d="m43.26189,60.05476c0.14706,0 0.14706,0.14706 0.14706,0.14706c0,0.14706 0.06747,0.24903 0.14706,0.44117c0.05628,0.13586 0,0.29412 0,0.44118c0,0.14706 0,0.44118 0,0.58823l0,0.14706l0,0.14706l0,0.14706" id="svg_16" fill-opacity="null" stroke-opacity="null" stroke-width="1.5" stroke="#000000" fill="none"/>
  <path d="m29.21982,39.08073c-0.12647,-0.13346 -0.11814,-0.15271 -0.37941,-0.26691c-0.36949,-0.1615 -0.61699,-0.19931 -1.01176,-0.26691c-0.37451,-0.06413 -1.01176,0 -1.39118,0c-0.37941,0 -0.61006,0.19835 -0.88529,0.26691c-0.24618,0.06133 -0.49755,0.15271 -0.75882,0.26691c-0.36949,0.1615 -0.43238,0.32281 -0.63235,0.53383c-0.19997,0.21101 -0.43744,0.35946 -0.50588,0.53382c-0.0484,0.1233 -0.08759,0.29173 -0.25294,0.53382c-0.10458,0.15311 -0.25294,0.40037 -0.25294,0.66728c0,0.13346 0,0.40037 0.12647,0.53382c0.12647,0.13346 0.12647,0.40037 0.37941,0.66728c0.12647,0.13346 0.21406,0.4252 0.37941,0.66728c0.10458,0.15311 0.23431,0.29002 0.37941,0.40037c0.22942,0.17449 0.34064,0.32814 0.50588,0.40037c0.11684,0.05107 0.38268,0.0907 0.63235,0.13346c0.39477,0.0676 0.63235,0.13345 0.75882,0.13345c0.25294,0 0.50588,0 0.63235,0c0.37941,0 0.52941,0.04103 0.75882,-0.13345c0.1451,-0.11036 0.36079,-0.29001 0.50588,-0.40037c0.22941,-0.17449 0.3983,-0.19675 0.50588,-0.26691c0.24056,-0.15689 0.43744,-0.35946 0.50588,-0.53382c0.0968,-0.24659 0.12647,-0.53382 0.12647,-0.80074c0,-0.13346 0.12647,-0.40037 0.12647,-0.53382c0,-0.13346 0,-0.40037 0,-0.53382c0,-0.13346 0,-0.26691 0,-0.53383c0,-0.26691 -0.12647,-0.53382 -0.12647,-0.80074l0,-0.26691l-0.12647,-0.26691l0,-0.13346" id="svg_19" fill-opacity="null" stroke-opacity="null" stroke-width="1.5" stroke="#000000" fill="none"/>
  <path d="m28.70309,26.23125c0,0 0.29412,0 0.58824,0c0.29412,0 0.57855,0.02122 0.88235,0.14706c0.42964,0.17796 1.17867,0.40524 1.47059,0.44118c0.6018,0.07409 1.32353,0.14706 1.7647,0.14706c0.29412,0 0.44118,0 0.88235,0.14706l0.14706,0l0.14706,0" id="svg_44" fill-opacity="null" stroke-width="1.5" stroke="#ffff00" fill="none"/>
  <path d="m29.58544,19.76067c0.14706,0 0.29412,0 0.58823,0c0.44118,0 0.87267,0.16828 1.17647,0.29412c0.42964,0.17796 0.82265,0.51662 1.17647,0.73529c0.39559,0.24449 0.58824,0.14706 0.88235,0.29412c0.29412,0.14706 0.45271,0.11615 0.88235,0.29412c0.3038,0.12584 0.58823,0.14706 0.88235,0.29412c0.29412,0.14706 0.73529,0.14706 0.88235,0.29412l0.14706,0l0.14706,0" id="svg_45" fill-opacity="null" stroke-width="1.5" stroke="#ffff00" fill="none"/>
  <path d="m35.61485,13.58421c0.29412,0 0.44118,0.14706 0.73529,0.29412c0.29412,0.14706 0.69325,0.4723 1.02941,0.88235c0.26371,0.32167 0.69325,0.76642 1.02941,1.17647c0.26371,0.32167 0.46314,0.51092 0.58824,0.58823c0.27972,0.17288 0.29412,0.58823 0.29412,0.73529l0.14706,0.14706l0.14706,0l0,0.14706" id="svg_46" fill-opacity="null" stroke-width="1.5" stroke="#ffff00" fill="none"/>
  <path d="m44.87955,11.8195c0,0.14706 -0.06757,0.30199 0,0.58823c0.07555,0.32004 0.19989,0.74289 0.29412,1.32353c0.07449,0.45904 0.21453,0.98433 0.29412,1.17647c0.11255,0.27173 0,0.44118 0.14706,0.44118l0,0.14706" id="svg_47" fill-opacity="null" stroke-width="1.5" stroke="#ffff00" fill="none"/>
  <path d="m51.93837,11.52538c0,0.14706 0,0.14706 0,0.44118c0,0.14706 0,0.58823 0,1.02941c0,0.44118 -0.07257,0.86449 -0.14706,1.32353c-0.09423,0.58064 0,1.02941 0,1.32353l0,0.29412" id="svg_48" fill-opacity="null" stroke-width="1.5" stroke="#ffff00" fill="none"/>
  <path d="m58.99718,12.11362c0,0.14706 0.04711,0.29792 0,0.58823c-0.07449,0.45904 -0.23081,0.90191 -0.44118,1.47059c-0.22818,0.61682 -0.58823,1.02941 -0.73529,1.47059l0,0.44118l0,0.29412l0,0.14706" id="svg_49" fill-opacity="null" stroke-width="1.5" stroke="#ffff00" fill="none"/>
  <path d="m65.32071,15.49597c0,0.14706 0.03379,0.15099 0,0.29412c-0.07555,0.32004 -0.58823,0.88235 -1.02941,1.47059c-0.44118,0.58824 -1.02941,1.17647 -1.32353,1.61765l-0.14706,0.29412" id="svg_50" fill-opacity="null" stroke-width="1.5" stroke="#ffff00" fill="none"/>
  <path d="m70.32071,22.70185c-0.29412,0 -0.44118,0 -0.58823,0c-0.14706,0 -0.32147,-0.04521 -0.58823,0.14706c-0.16872,0.1216 -0.46854,0.39596 -0.73531,0.58823c-0.33743,0.24321 -0.69198,0.34503 -1.0294,0.58823c-0.26676,0.19227 -0.41526,0.36563 -0.73529,0.44118c-0.14312,0.03379 -0.29412,0.14706 -0.44118,0.14706c-0.14706,0 -0.44118,0.14706 -0.58823,0.14706l-0.14706,0l-0.44118,0l0,0.14706" id="svg_51" fill-opacity="null" stroke-width="1.5" stroke="#ffff00" fill="none"/>
  <path d="m71.49717,30.3489c-0.29411,0.14706 -0.57468,0.36709 -1.17648,0.44118c-0.58382,0.07187 -1.31042,0.19365 -2.05882,0.14706c-0.46413,-0.0289 -0.86449,-0.36668 -1.32352,-0.44118c-0.29031,-0.04711 -0.58823,0 -0.58823,0.14706l0,0.14706" id="svg_52" fill-opacity="null" stroke-width="1.5" stroke="#ffff00" fill="none"/>
  <path d="m11.2031,57.11358c0,-0.14706 -0.25208,-0.32524 -0.58824,-0.73529c-0.2637,-0.32167 -0.7862,-0.54492 -1.02941,-0.88235c-0.19227,-0.26677 -0.26321,-0.59977 -0.44118,-1.02941c-0.12584,-0.3038 -0.29412,-0.58824 -0.44118,-0.88235c-0.14706,-0.29412 -0.14706,-0.58823 -0.29412,-0.88235c-0.14706,-0.29412 -0.2683,-0.45557 -0.44118,-0.73529c-0.15462,-0.25019 0.11255,-0.61062 0,-0.88235c-0.07959,-0.19214 -0.14706,-0.44118 -0.14706,-0.73529c0,-0.14706 -0.05628,-0.45237 0,-0.58823c0.07959,-0.19214 0.14706,-0.44118 0.29412,-0.58823c0.29412,-0.29412 0.24891,-0.46853 0.44118,-0.73529c0.1216,-0.16872 0.20865,-0.35572 0.44118,-0.58824c0.23252,-0.23252 0.3849,-0.30531 0.44118,-0.44117c0.07959,-0.19214 0.29412,-0.29412 0.58823,-0.58823c0.14706,-0.14706 0.48425,-0.33719 0.58823,-0.44118c0.10399,-0.10398 0.29805,-0.11327 0.44118,-0.14706c0.32003,-0.07555 0.41526,-0.36562 0.73529,-0.44117c0.14312,-0.03379 0.24903,-0.06747 0.44117,-0.14706c0.13586,-0.05628 0.31651,0.11255 0.58824,0c0.19214,-0.07959 0.44118,-0.14706 0.58824,-0.14706c0.14706,0 0.29412,0 0.58823,0c0.14706,0 0.44118,0 0.58823,0c0.14706,0 0.29412,0 0.44118,0c0.14706,0 0.41526,0.07151 0.73529,0.14706c0.28625,0.06757 0.46356,0.03451 0.73529,0.14706c0.19214,0.07959 0.32147,0.10184 0.58824,0.29412c0.16871,0.1216 0.30531,0.23784 0.44117,0.29412c0.38428,0.15918 0.3961,0.36159 0.58824,0.44118c0.13586,0.05628 0.15825,0.09078 0.29412,0.14706c0.19214,0.07959 0.24903,0.36159 0.44117,0.44118c0.13587,0.05628 0.14706,0.14706 0.29412,0.29412c0,0 0.19013,0.04307 0.29412,0.14706c0.10398,0.10399 0.04307,0.33719 0.14706,0.44118c0.10399,0.10398 0.44118,0.14706 0.44118,0.29412c0,0.14706 0.21453,0.10197 0.29412,0.29412c0.05628,0.13586 0.21453,0.10198 0.29412,0.29412c0.05628,0.13586 0.14706,0.14706 0.14706,0.29412c0,0.29412 0.282,0.49807 0.44117,0.88235c0.05628,0.13586 0.04307,0.19013 0.14706,0.29412c0.10398,0.10399 0.04307,0.19013 0.14706,0.29412c0.10398,0.10399 0.0345,0.31651 0.14706,0.58823c0.07959,0.19214 0.14706,0.29412 0.29412,0.44118c0,0 -0.10398,0.19013 0,0.29412c0.10399,0.10398 0.14706,0.14706 0.14706,0.29412c0,0 0,0.14706 0,0.29412c0,0.14706 0,0.14706 0,0.29412c0,0.29412 -0.09078,0.30531 -0.14706,0.44117c-0.07959,0.19214 -0.07948,0.30199 -0.14706,0.58824c-0.07555,0.32004 -0.14706,0.44117 -0.29412,0.58823c0,0 -0.06975,0.16902 -0.14706,0.29412c-0.17288,0.27972 -0.36159,0.24903 -0.44118,0.44118c-0.11255,0.27173 -0.09078,0.30531 -0.14706,0.44117c-0.07959,0.19214 -0.14706,0.29412 -0.14706,0.44118c0,0.14706 0,0.29412 0,0.44118c0,0.14706 0,0.29412 0,0.44117c0,0.14706 0,0.14706 0,0.29412c0,0.14706 0,0.29412 0,0.44118c0,0.14706 0.14706,0.14706 0.14706,0.14706c0,0.14706 0.04307,0.19013 0.14706,0.29412c0.10398,0.10398 0.04307,0.19013 0.14706,0.29412c0.10398,0.10398 0.06747,0.24903 0.14706,0.44118c0.05628,0.13586 -0.05627,0.30531 0,0.44117c0.07959,0.19214 0.19013,0.33719 0.29412,0.44118c0.10398,0.10398 0.29412,0.14706 0.29412,0.29412c0,0 0,0.14706 0.14706,0.14706c0.14706,0 0.21453,0.10197 0.29412,0.29412c0.05628,0.13586 0.04307,0.04307 0.14706,0.14706c0.10398,0.10399 0.09078,0.15825 0.14706,0.29412c0.07959,0.19214 0.21453,0.24903 0.29412,0.44118c0.05628,0.13586 0.04307,0.19013 0.14706,0.29412c0.20797,0.20797 0,0.44118 0,0.58823c0,0.14706 -0.14706,0.14706 -0.14706,0.29412c0,0.14706 -0.15826,0.09078 -0.29412,0.14706c-0.19214,0.07959 -0.10197,0.36159 -0.29412,0.44118c-0.13586,0.05628 -0.33719,0.04307 -0.44117,0.14706c-0.10399,0.10399 -0.14706,0.14706 -0.29412,0.14706c-0.14706,0 -0.29412,0 -0.44118,0c-0.29412,0 -0.33719,0.04307 -0.44118,0.14706c-0.20797,0.20797 -0.33719,0.04307 -0.44118,0.14706c-0.10398,0.10398 -0.24903,0.06747 -0.44117,0.14706c-0.13586,0.05628 -0.29412,-0.14706 -0.44118,-0.14706c-0.14706,0 -0.23784,-0.15825 -0.29412,-0.29412c-0.07959,-0.19214 -0.29412,-0.44118 -0.44118,-0.58823c-0.14706,-0.14706 -0.2489,-0.32148 -0.44117,-0.58824c-0.1216,-0.16872 -0.19013,-0.19013 -0.29412,-0.29412c-0.20797,-0.20797 -0.09078,-0.59943 -0.14706,-0.73529c-0.07959,-0.19214 -0.19013,-0.19013 -0.29412,-0.29412c-0.10399,-0.10398 -0.19013,-0.19013 -0.29412,-0.29412c-0.20797,-0.20797 0,-0.44117 0,-0.58823c0,-0.14706 -0.07151,-0.2682 -0.14706,-0.58823c-0.06757,-0.28625 0,-0.58823 0,-0.88235c0,-0.14706 0,-0.29412 0,-0.44117c0,-0.14706 0,-0.44118 0.14706,-0.58824c0.14706,-0.14706 0.21453,-0.24903 0.29412,-0.44117c0.05628,-0.13586 -0.05628,-0.30531 0,-0.44118c0.07959,-0.19214 0.09078,-0.15825 0.14706,-0.29412c0.07959,-0.19214 0.14706,-0.44118 0.14706,-0.58823c0,-0.14706 0.14706,-0.29412 0.14706,-0.44118c0,-0.14706 0.04308,-0.19013 0.14706,-0.29412c0.10399,-0.10399 -0.05628,-0.30531 0,-0.44118c0.07959,-0.19214 0.14706,-0.44117 0.14706,-0.58823c0,-0.14706 0,-0.44118 0,-0.44118c0,-0.29412 0,-0.44117 -0.14706,-0.58823c-0.14706,-0.14706 -0.21453,-0.3961 -0.29412,-0.58823c-0.05628,-0.13586 -0.21453,-0.24903 -0.29412,-0.44118c-0.05628,-0.13586 -0.19013,-0.33719 -0.29412,-0.44117c-0.10399,-0.10399 -0.09078,-0.30531 -0.14706,-0.44118c-0.07959,-0.19214 -0.14706,-0.29412 -0.29412,-0.44118c-0.14706,-0.14706 -0.18156,-0.31651 -0.29412,-0.58823c-0.07959,-0.19214 -0.33719,-0.19013 -0.44118,-0.29412c-0.10399,-0.10399 -0.15825,-0.09079 -0.29412,-0.14706c-0.19214,-0.07959 -0.33719,-0.04307 -0.44118,-0.14706c-0.10399,-0.10399 -0.14706,-0.29412 -0.14706,-0.29412c-0.14706,0 -0.29412,0 -0.44118,0c-0.14706,0 -0.14706,0 -0.29412,0c-0.14706,0 -0.15825,-0.05628 -0.29412,0c-0.19214,0.07959 -0.29412,0.14706 -0.44118,0.14706c0,0 -0.15825,0.09078 -0.29412,0.14706c-0.19214,0.07959 -0.29412,0.29412 -0.44118,0.29412c-0.14706,0 -0.09078,0.15825 -0.14706,0.29412c-0.07959,0.19214 -0.19013,0.04308 -0.29412,0.14706c-0.20797,0.20797 -0.14706,0.44117 -0.14706,0.58823c0,0.14706 -0.06747,0.24903 -0.14706,0.44117c-0.05628,0.13586 0,0.29412 0,0.58824c0,0.14706 0,0.29412 0,0.44117c0,0.14706 0.06747,0.24903 0.14706,0.44118c0.11255,0.27173 0.14706,0.44118 0.14706,0.58823c0,0.29412 0.14706,0.29412 0.14706,0.58824c0,0.14706 0.26033,0.29805 0.29412,0.44117c0.07555,0.32004 0.21453,0.3961 0.29412,0.58823c0.05628,0.13586 0.06747,0.24904 0.14706,0.44118c0.05628,0.13586 0.04307,0.04308 0.14706,0.14706c0.10398,0.10398 0.10398,0.33719 0,0.44117c-0.10399,0.10398 -0.24903,0.06747 -0.44118,0.14706c-0.13586,0.05628 -0.29412,0 -0.29412,0c-0.14706,0 -0.29412,0 -0.29412,0c-0.14706,0.14706 -0.29412,0.14706 -0.44118,0.14706c0,0 -0.14706,0 -0.29412,0c-0.14706,0 -0.29412,0 -0.29412,0l-0.14706,0l0,0" id="svg_56" fill-opacity="null" stroke-width="1.5" stroke="#000000" fill="none"/>
  <path d="m25.02662,65.79005c-0.14706,-0.14706 -0.29412,-0.14706 -0.58823,-0.14706c-0.44118,0 -1.04121,0.0457 -1.47059,0.14706c-0.32004,0.07555 -0.44118,0.14706 -0.58824,0.29412c-0.14706,0.14706 -0.46663,0.41952 -0.58823,0.58823c-0.19227,0.26676 -0.29412,0.44118 -0.29412,0.58823c0,0.14706 0,0.29412 0,0.44118c0,0.14706 0,0.44118 0,0.58823c0,0.29412 0.14706,0.58824 0.29412,0.73529c0.14706,0.14706 0.24903,0.36159 0.44118,0.44118c0.13586,0.05628 0.29412,0.29412 0.44118,0.44118c0.14706,0.14706 0.33719,0.19013 0.44118,0.29412c0.10399,0.10398 0.19013,0.04308 0.29412,0.14706c0.20797,0.20797 0.39609,0.06747 0.58823,0.14706c0.27173,0.11256 0.44118,0 0.58824,0c0.29412,0 0.61559,0.04521 0.88235,-0.14706c0.16871,-0.1216 0.27246,-0.17251 0.44118,-0.29412c0.26676,-0.19227 0.3849,-0.30531 0.44118,-0.44118c0.07959,-0.19214 0.21453,-0.24902 0.29412,-0.44117c0.05628,-0.13586 0,-0.44118 0,-0.58823c0,-0.29412 0,-0.44117 0,-0.58823c0,-0.14706 0.11255,-0.31651 0,-0.58823c-0.07959,-0.19214 -0.10185,-0.61559 -0.29412,-0.88235c-0.1216,-0.16872 -0.2489,-0.32146 -0.44118,-0.58823c-0.1216,-0.16872 -0.29412,-0.29412 -0.44118,-0.44118l-0.14706,0l-0.14706,-0.14706l-0.29412,0" id="svg_57" fill-opacity="null" stroke-opacity="null" stroke-width="1.5" stroke="#000000" fill="none"/>
  <path fill="none" stroke="#000000" stroke-width="1.5" fill-opacity="null" id="svg_42" d="m74.60889,71.24208c0,0 -0.13071,0 -0.52285,0c-0.52286,0 -1.0562,-0.0901 -1.43784,0c-0.28447,0.06715 -0.37289,0.28405 -0.52287,0.39214c-0.23711,0.1709 -0.39214,0.39214 -0.65356,0.65357c-0.13071,0.13071 -0.23396,0.4024 -0.39214,0.78428c-0.11185,0.27003 -0.26143,0.39214 -0.26143,0.65356c0,0 0,0.13071 0,0.39214c0,0.26142 0.08069,0.5328 0.13071,0.65356c0.07074,0.17078 0.28094,0.32342 0.39214,0.39214c0.24863,0.15366 0.36211,0.52634 0.39214,0.65356c0.06715,0.28446 0.1435,0.4999 0.39214,0.65356c0.11119,0.06872 0.26144,0.13071 0.39214,0.13071c0.13071,0 0.39214,0 0.52285,0c0.13071,0 0.13071,0 0.26143,0c0.26142,0 0.40208,0.05003 0.52285,0c0.17078,-0.07074 0.44689,-0.05476 0.65356,-0.26143c0.20667,-0.20668 0.28574,-0.35195 0.52287,-0.52285c0.14996,-0.10809 0.26142,-0.26143 0.52285,-0.52286c0.13071,-0.13071 0.22124,-0.28574 0.39214,-0.52285c0.10809,-0.14996 0.19427,-0.23839 0.26142,-0.52286c0.03003,-0.12721 -0.05003,-0.27137 0,-0.39214c0.07074,-0.17078 0.13071,-0.13071 0.13071,-0.26143c0,-0.26142 0,-0.39214 0,-0.65356c0,-0.13071 -0.13071,-0.39214 -0.13071,-0.52284c0,-0.13071 -0.13071,-0.13071 -0.13071,-0.13071c0,-0.13071 -0.13071,-0.26143 -0.26142,-0.39214c-0.13071,-0.13071 -0.40209,-0.47283 -0.52286,-0.52285c-0.17078,-0.07074 -0.26142,-0.13071 -0.52285,-0.39214l-0.13071,-0.13071l-0.26142,-0.13071"/>
  <path fill="none" stroke="#000000" stroke-width="1.5" fill-opacity="null" id="svg_55" d="m74.34747,67.71281c0.13071,0 0.26142,0 0.52285,0c0.39214,0 0.65356,0.13071 0.91499,0.26144c0.26142,0.13071 0.22135,0.3214 0.39214,0.39214c0.12077,0.05002 0.22136,0.05997 0.39214,0.13071c0.12077,0.05002 0.26142,0.13071 0.39214,0.13071c0.26143,0 0.29971,0.03828 0.39214,0.13071c0.09243,0.09243 0.13071,0.13071 0.13071,0.13071c0,0 0.13071,0 0.26142,0c0.26143,0 0.4469,-0.18546 0.65356,-0.39214c0.41335,-0.41335 0.95551,-0.43625 1.30713,-0.65356c0.31451,-0.19437 0.56696,-0.56339 0.78429,-0.91499c0.29156,-0.47174 0.65356,-0.52285 0.91499,-0.78428c0.13071,-0.13071 0.35426,-0.39775 0.39214,-0.52285c0.13657,-0.45107 0.52286,-0.52285 0.78428,-0.78428c0.26143,-0.26143 0.49539,-0.5331 0.65357,-0.91499c0.11185,-0.27003 0.26141,-0.39214 0.52285,-0.65356c0.13071,-0.13071 0.39214,-0.52285 0.52285,-0.78428c0.13071,-0.26143 0.34212,-0.40209 0.39214,-0.52285c0.07074,-0.17079 0.22124,-0.41645 0.39214,-0.65356c0.10809,-0.14997 0.26143,-0.26143 0.39214,-0.39214c0.13071,-0.13071 0.22124,-0.28574 0.39214,-0.52285c0.10809,-0.14997 0.2114,-0.40209 0.26143,-0.52285c0.07074,-0.17078 0.09064,-0.45211 0.26143,-0.52285c0.12077,-0.05002 0.32498,-0.10767 0.39214,-0.39214c0.03003,-0.12721 0.03828,-0.16899 0.13071,-0.26143c0.18485,-0.18486 -0.13071,-0.39214 -0.13071,-0.39214c-0.13071,-0.26143 -0.40208,-0.34212 -0.52285,-0.39214c-0.34158,-0.14148 -1.02449,-0.50164 -1.43784,-0.91499c-0.20667,-0.20668 -0.92525,-0.49538 -1.30714,-0.65356c-0.27003,-0.11185 -0.39382,-0.24049 -0.52285,-0.26143c-0.40802,-0.06621 -0.78428,-0.39214 -1.04572,-0.52285c-0.26141,-0.13071 -0.39214,-0.13071 -0.65356,-0.26143c-0.26143,-0.13071 -0.5527,-0.11136 -0.91499,-0.26143c-0.17078,-0.07074 -0.39214,-0.26143 -0.52285,-0.26143c-0.13071,0 -0.26143,-0.13071 -0.39214,-0.13071c-0.13071,0 -0.29971,-0.09243 -0.39214,0c-0.09243,0.09243 -0.03828,0.29971 -0.13071,0.39214c-0.09243,0.09243 -0.30668,0.09222 -0.52285,0.39214c-0.1709,0.23711 -0.26143,0.52285 -0.39214,0.78428c-0.13071,0.26143 -0.15334,0.37289 -0.26143,0.52285c-0.1709,0.23711 -0.17133,0.53334 -0.26142,0.91499c-0.06715,0.28446 -0.20135,0.52984 -0.26143,0.78428c-0.06715,0.28446 -0.14957,0.64495 -0.26143,0.91499c-0.15819,0.38189 -0.23395,0.79454 -0.39214,1.17642c-0.11185,0.27003 -0.27657,0.64884 -0.39214,1.0457c-0.15068,0.51745 -0.19427,0.76124 -0.26142,1.0457c-0.06006,0.25444 -0.07065,0.52985 -0.13071,0.78428c-0.06715,0.28446 -0.19427,0.3691 -0.26144,0.65356c-0.06007,0.25443 -0.04062,0.53334 -0.13071,0.91499c-0.06715,0.28446 -0.20135,0.52985 -0.26142,0.78429c-0.06715,0.28445 -0.0807,0.5328 -0.13071,0.65356c-0.07074,0.17079 -0.19069,0.35207 -0.26143,0.52285c-0.05003,0.12077 0,0.26143 0,0.39214l0,0.13071l0,0.13071"/>
 </g>
</svg>
