<svg width="99.99999999999999" height="99.99999999999999" xmlns="http://www.w3.org/2000/svg" xmlns:svg="http://www.w3.org/2000/svg">
 <!-- Created with Method Draw - http://github.com/duopixel/Method-Draw/ -->

 <g>
  <title>background</title>
  <rect x="-1" y="-1" width="102" height="102" id="canvas_background" fill="none"/>
  <g id="canvasGrid" display="none">
   <rect id="svg_1" width="100%" height="100%" x="0" y="0" stroke-width="0" fill="url(#gridpattern)"/>
  </g>
 </g>
 <g>
  <title>Layer 1</title>
  <path fill="none" stroke="#000000" stroke-width="1.5" stroke-opacity="null" fill-opacity="null" id="svg_91" d="m12.86171,54.1835c0,0.16 0.16,0.16 0.16,0.32c0,0.16 -0.05865,0.6436 0,1.12c0.0806,0.65475 0.16,1.44 0.16,1.92c0,0.48 0,0.96 0,1.44c0,0.48 -0.07895,0.78057 -0.16,1.28c-0.02563,0.15793 0,0.96 0,1.28c0,0.16 -0.0778,0.4518 -0.16,0.8c-0.11028,0.46716 0,0.8 0,1.28c0,0.16 -0.0778,0.4518 -0.16,0.8c-0.07352,0.31144 0,0.64 0,0.96c0,0.16001 0.03676,0.32428 0,0.48001c-0.0822,0.3482 -0.16,0.48 -0.16,0.64c0,0.48 0,0.8 0,0.95999c0,0.16 -0.0778,0.2918 -0.16,0.64001c-0.07352,0.31145 0,0.64001 0,0.96001c0,0.32 0,0.48 0,0.64c0,0.16 0,0.32 0.16,0.64c0.16,0.32001 0.27425,0.83388 0.64,1.28001c0.14346,0.175 0.36686,0.36686 0.48,0.48c0.11314,0.11314 0.16,0.16 0.32,0.32c0.16,0.16 0.43095,0.39342 0.64,0.48c0.29564,0.12247 0.48,0.16 0.64,0.16c0.32,0 0.64413,0.05126 0.96,0c0.49943,-0.08105 0.66976,-0.11081 0.96,-0.32c0.18356,-0.13231 0.32,-0.16 0.48,-0.32001c0.16,-0.16 0.46682,-0.2219 0.64,-0.64001c0.06123,-0.14783 0.25878,-0.33218 0.32,-0.48c0.08659,-0.20905 0.39341,-0.27095 0.48,-0.48c0.06123,-0.14782 0.09877,-0.33218 0.16,-0.48c0.08659,-0.20905 0.09877,-0.33218 0.16,-0.48c0.08659,-0.20905 0.2378,-0.2918 0.32,-0.64c0.03676,-0.15572 0.16,-0.32001 0.16,-0.48c0,-0.32 0.16,-0.48 0.16,-0.64001c0,-0.16 0,-0.32 0,-0.48c0,-0.16 0.0778,-0.29179 0.16,-0.63998c0.03676,-0.15572 0.16,-0.48 0.16,-0.64001c0,-0.32 0.12324,-0.64429 0.16,-0.8c0.0822,-0.34821 0.2378,-0.45181 0.32,-0.8c0.03676,-0.15572 0.23341,-0.27095 0.32,-0.48c0.06123,-0.14782 0.29191,-0.17566 0.48,-0.48c0.08412,-0.1361 0.11095,-0.23341 0.32,-0.32c0.14782,-0.06123 0.48,0 0.64,0c0.16,0 0.39341,-0.04905 0.48,0.16c0.06123,0.14782 0.23341,0.43095 0.32,0.64c0.12246,0.29565 0.23341,0.59095 0.32,0.8c0.06123,0.14782 -0.12246,0.50436 0,0.8c0.08659,0.20905 0.16,0.32 0.16,0.64c0,0.16 0,0.48 0,0.64c0,0.32 0.16,0.64001 0.16,0.96001c0,0.32001 0.09877,0.65218 0.16,0.8c0.08659,0.20905 0.20686,0.20686 0.32,0.32c0.11313,0.11314 0.0778,0.2918 0.16,0.64c0.03676,0.15572 0.09877,0.33218 0.16,0.48c0.08659,0.20905 0.32,0.16 0.48,0.32001c0,0 0.04872,0.0751 0.64,0.32c0.20905,0.08659 0.29644,0.34769 0.48,0.48c0.29024,0.20919 0.75095,0.39342 0.96,0.48c0.14782,0.06123 0.32,0.16 0.48,0.16c0.32,0 0.64,0 0.8,0c0.31999,0 0.49217,-0.09876 0.64,-0.16c0.20905,-0.08659 0.31999,-0.32 0.48,-0.48c0.16,-0.16 0.20687,-0.36686 0.32001,-0.48c0.11313,-0.11314 0.09877,-0.17218 0.16,-0.32c0.08659,-0.20905 0.13437,-0.48206 0.16,-0.64001c0.08105,-0.49944 0.16,-0.8 0.16,-1.12c0,-0.32 0,-0.8 0,-0.96001c0,-0.32 0,-0.64 0,-0.8c0,-0.32 -0.0778,-0.45181 -0.16,-0.8c-0.07352,-0.31145 -0.07341,-0.59095 -0.16,-0.8c-0.06123,-0.14782 0,-0.32 0,-0.64c0,-0.32001 0.18369,-0.67654 0,-1.12c-0.08659,-0.20905 -0.13437,-0.48207 -0.16,-0.64c-0.08105,-0.49943 -0.03754,-0.66436 -0.16,-0.96c-0.08659,-0.20905 -0.09877,-0.33218 -0.16,-0.48c-0.08659,-0.20905 -0.20686,-0.36686 -0.32,-0.48c-0.11314,-0.11314 0.06123,-0.33218 0,-0.48c-0.08659,-0.20905 -0.23341,-0.27095 -0.32,-0.48c-0.06123,-0.14782 -0.0778,-0.29181 -0.16,-0.64c-0.03677,-0.15572 -0.0778,-0.2918 -0.16,-0.64c-0.03677,-0.15572 -0.07341,-0.43095 -0.16,-0.64c-0.06123,-0.14782 0.06123,-0.33218 0,-0.48c-0.08659,-0.20905 -0.16,-0.32 -0.16,-0.48c0,-0.16 -0.07341,-0.27095 -0.16,-0.48c-0.06123,-0.14782 0,-0.32 0,-0.32c0,-0.16 0,-0.32 0,-0.48c0,0 0,-0.16 0,-0.32c0,0 0,-0.16 0,-0.32c0,-0.16 0.06123,-0.17218 0,-0.32c-0.08659,-0.20905 -0.16,-0.32 -0.16,-0.48c0,-0.16 0,-0.48 0,-0.8c0,-0.16 0,-0.32 0,-0.48c0,-0.32 0,-0.48 0.16,-0.48l0,-0.16l0,-0.16l0,0"/>
  <path fill="none" stroke="#000000" stroke-width="1.5" stroke-opacity="null" fill-opacity="null" id="svg_101" d="m28.38173,52.9035c0,-0.48 -0.10252,-0.96826 0,-1.6c0.08105,-0.49944 0.24312,-1.2862 0.32001,-1.76c0.08104,-0.49943 0.24648,-0.96856 0.31999,-1.28c0.0822,-0.3482 0.19754,-0.50436 0.32001,-0.8c0.08659,-0.20905 0.19754,-0.50436 0.31999,-0.8c0.08659,-0.20905 0.16,-0.48 0.32001,-0.64c0.16,-0.16 0.23341,-0.27095 0.32,-0.48c0.06123,-0.14782 0,-0.32 0,-0.48l0.16,0l0,0"/>
  <path d="m12.5853,52.94412c0.14706,0 0.14706,0.14706 0.14706,0.14706c0,0.14706 0.06747,0.24903 0.14706,0.44117c0.05628,0.13586 0,0.29412 0,0.44118c0,0.14706 0,0.44118 0,0.58823l0,0.14706l0,0.14706l0,0.14706" id="svg_16" fill-opacity="null" stroke-opacity="null" stroke-width="1.5" stroke="#000000" fill="none"/>
  <path d="m29.9,45.51667c0.4,-0.8 1.04404,-1.35897 1.6,-2c0.6552,-0.75546 1.24252,-1.53424 2.2,-2.2c1.05143,-0.73109 2.30385,-1.51164 2.8,-2.2c0.2615,-0.3628 0.75279,-0.70557 1.2,-1.6c0.08944,-0.17889 0.79103,-1.30983 1,-2c0.23183,-0.76567 0.29869,-1.57571 0.39999,-2.2c0.12814,-0.78967 0,-1.4 0,-1.6c0,-1 0.04203,-1.41569 -0.2,-2c-0.17113,-0.41317 -0.38156,-0.89924 -1.2,-1c-0.397,-0.04887 -0.60001,0 -0.8,0c-0.6,0 -0.73851,0.0372 -1,0.4c-0.49614,0.68836 -1.39632,0.9424 -1.6,2c-0.03782,0.19639 -0.2,0.6 -0.4,1.2c-0.2,0.6 -1.03806,2.17631 -1.4,2.8c-0.22447,0.3868 -0.09201,1.08233 -1.4,2.2c-0.34,0.29052 -0.80994,0.58125 -1.2,0.8c-1.64566,0.92294 -2,1 -2.2,1c-0.2,0 -0.60535,0.04595 -0.8,0c-0.43525,-0.10275 -0.92277,-0.2594 -1.4,-0.8c-0.29597,-0.33527 -0.45858,-0.65858 -0.6,-0.8c-0.14142,-0.14142 -0.13851,-0.4372 -0.4,-0.8c-0.33076,-0.45891 -0.49725,-0.56475 -0.6,-1c-0.04595,-0.19465 0,-0.4 0,-0.6c0,-0.4 0,-0.8 0,-1l0,-0.2" id="svg_8" fill-opacity="null" stroke-opacity="null" stroke-width="1.5" stroke="#000000" fill="none"/>
  <path d="m12.7,53.51667c0,-0.6 -0.2,-1 -0.2,-1.6c0,-0.6 -0.2,-1 -0.2,-1.2c0,-0.4 0,-1 0,-2.2c0,-0.2 0,-0.6 0,-1c0,-1 0.2,-1.2 0.2,-1.4l0,-0.4" id="svg_10" fill-opacity="null" stroke-opacity="null" stroke-width="1.5" stroke="#000000" fill="none"/>
  <path d="m16.1,34.31667c0,0.4 0,0.8 0,1.2c0,0.2 0,0.4 -0.2,0.6c-0.2,0.2 -0.3188,0.7026 -0.8,1c-0.538,0.3325 -0.8,0.4 -1.4,0.4c-0.2,0 -0.57055,0.23462 -0.8,0.4c-0.3628,0.26149 -0.81569,0.35797 -1.4,0.6c-0.41317,0.17114 -0.57055,0.43462 -0.8,0.6c-0.3628,0.26149 -0.6372,0.53851 -1,0.8c-0.68836,0.49614 -1.03462,0.97055 -1.2,1.2c-0.26149,0.3628 -0.4,0.8 -0.6,1.4c-0.2,0.6 -0.59103,0.90983 -0.8,1.6c-0.11591,0.38284 -0.2,1.4 -0.2,2c0,0.2 0,0.6 0,1c0,0.6 0,1 0,1.4c0,0.6 0.13593,1.20517 0.2,1.6c0.10131,0.62429 0.4,1 0.6,1.4c0.2,0.4 0.33851,1.0372 0.6,1.4c0.33076,0.45891 0.8,1 1.2,1.4c0.2,0.2 0.4,0.4 0.6,0.6c0.2,0.2 0.56488,0.01958 0.8,0.4c0.10514,0.17013 0.2372,0.13851 0.6,0.4c0.22945,0.16538 0.6,0.4 0.8,0.4l0,0l0.2,0.2" id="svg_13" fill-opacity="null" stroke-opacity="null" stroke-width="1.5" stroke="#000000" fill="none"/>
  <path d="m13.1,34.31667c0.6,0.2 1.00449,0.12669 1.6,0.2c0.81844,0.10075 1.8,0.2 3,0.2c1.2,0 2.01033,0.12815 2.8,0c0.62429,-0.10131 1.24587,-0.2664 2,-0.6c0.65947,-0.29173 1.08467,-0.48565 2.2,-1.4c0.6562,-0.53796 0.8,-1.4 1.2,-2c0.4,-0.6 0.8,-1.2 1,-1.8c0.2,-0.6 0.29924,-1.38156 0.4,-2.2c0.09774,-0.79401 0.09611,-1.80775 0,-2.4c-0.20261,-1.24858 -0.63805,-1.9763 -1,-2.6c-0.44894,-0.7736 -0.70403,-1.66473 -1,-2c-0.47723,-0.5406 -1.1188,-0.9026 -1.6,-1.2c-0.538,-0.3325 -1.17699,-0.45486 -1.6,-0.6c-0.9646,-0.33096 -1.6,-0.4 -2.2,-0.4c-0.8,0 -1.2,0 -1.8,0c-0.8,0 -1.6107,0.1081 -2,0.2c-0.43525,0.10275 -1.04234,0.34282 -1.6,0.8c-0.43747,0.35864 -0.7763,0.83806 -1.4,1.2c-0.3868,0.22447 -0.7081,0.8107 -0.8,1.2c-0.10275,0.43525 -0.7026,0.9188 -1,1.4c-0.3325,0.538 -0.35797,1.21569 -0.6,1.8c-0.17114,0.41317 -0.4,0.8 -0.4,1.2c0,0.6 0,1.2 0,1.4c0,0.6 0,1.2 0,1.6c0,0.4 0.09725,0.76475 0.2,1.2c0.13785,0.58395 0.12346,1.01522 0.2,1.2c0.10824,0.26131 0.33851,0.2372 0.6,0.6c0.16538,0.22945 0.49176,0.53869 0.6,0.8c0.15307,0.36955 0.29725,0.56475 0.4,1c0.04595,0.19465 0.4987,0.37571 0.6,1c0.03204,0.19741 0.2,0.4 0.4,0.4l0,0.2l0.2,0l0.2,0.2" id="svg_23" fill-opacity="null" stroke-opacity="null" stroke-width="1.5" stroke="#000000" fill="none"/>
  <path d="m71.9,35.11666c0.2,0.4 0.17039,0.84567 0.4,1.4c0.10824,0.26131 0.2,0.6 0.2,0.8c0,0 0,0.2 -0.2,0.4c-0.2,0.2 -0.32346,0.41522 -0.4,0.6c-0.10824,0.26131 -0.56475,0.29725 -1,0.4c-0.38931,0.0919 -1.2,0 -1.39999,0c-0.60001,0 -0.9763,-0.23806 -1.60001,-0.6c-0.3868,-0.22446 -0.56796,-0.60258 -0.6,-0.8c-0.10131,-0.62429 -0.23204,-1.00258 -0.2,-1.2c0.10131,-0.62429 0.56254,-1.04136 1.00002,-1.4c0.55766,-0.45718 1.16253,-1.04136 1.6,-1.4c0.55766,-0.45718 1,-0.8 1.2,-1.4c0.2,-0.60001 0.49725,-0.96475 0.60001,-1.4c0.0919,-0.3893 -0.17553,-0.8132 -0.39999,-1.2c-0.36195,-0.6237 -0.64137,-0.76253 -1,-1.2c-0.45718,-0.55767 -0.60516,-0.93593 -1,-1c-0.62428,-0.10131 -1.2,-0.4 -2.00001,-0.4c-0.60001,0 -1.4,0.6 -1.8,0.8c-0.4,0.2 -0.90086,0.4071 -1.8,1c-0.23613,0.1557 -0.4,0.8 -0.8,1.4c-0.4,0.6 -0.75797,0.81569 -1,1.4c-0.34228,0.82634 -0.69725,1.56475 -0.8,2c-0.0919,0.3893 0,1 0,1.8c0,0.2 0,0.8 0,1.2c0,0.6 0.1081,1.0107 0.2,1.4c0.10275,0.43525 0.4,1 0.8,1.6c0.4,0.6 0.65187,0.75412 1,1.2c0.71769,0.9192 0.76253,1.24136 1.2,1.6c0.55766,0.45718 1,0.8 1.2,1c0.2,0.2 0.57053,0.43462 0.8,0.6c0.36279,0.26149 0.8,0.2 1,0.4c0.40001,0.4 0.43719,0.73851 0.8,1c0.45892,0.33076 0.60001,0.60001 1,0.8c0.4,0.2 0.72346,0.41522 0.8,0.6c0.10825,0.26131 0.4,0.4 0.60001,0.4c0,0 0.05858,0.05858 0.2,0.2c0.14143,0.14143 0.2,0.2 0.2,0.2c0.2,0.2 0.12346,0.41523 0.2,0.6c0.10825,0.26131 0.2,0.4 0.2,0.6c0,0.4 0.09724,0.56475 0.2,1c0.0919,0.3893 0,0.6 0,1c0,0 -0.04595,0.40535 0,0.6c0.10275,0.43525 0.2,0.6 0.2,0.8c0,0.4 0.09177,0.73869 0.2,1c0.07655,0.18478 0,0.6 0,1c0,0.2 0,0.6 0,0.8c0,0.2 -0.2,0.4 -0.2,0.6c0,0.2 0,0.4 0,0.8c0,0.2 -0.09177,0.33869 -0.2,0.6c-0.15308,0.36955 0.0919,0.4107 0,0.8c-0.10275,0.43525 -0.29176,0.73869 -0.4,1c-0.07655,0.18478 0,0.6 -0.2,0.8c-0.2,0.2 -0.39999,0.6 -0.39999,1c0,0.4 -0.12347,0.61523 -0.2,0.8c-0.10825,0.26131 -0.29726,0.36475 -0.4,0.8c-0.18382,0.7786 0,1.4 0,2c0,0.59999 0,1 0,1.4c0,0.2 0,0.39999 0,0.6c0,0.2 0,0.4 0,0.60001c0,0.39999 0,0.6 0,0.8c0,0.39999 0.09176,0.53867 0.2,0.8c0.15308,0.36955 0.23463,0.57055 0.4,0.8c0.26147,0.3628 0.33868,0.69176 0.6,0.8c0.18478,0.07655 0.4,0 0.60001,0c0.60001,0 0.8,0 1,0c0,0 0.43045,0.15308 0.8,0c0.26131,-0.10824 0.58353,-0.07737 0.8,-0.6c0.07655,-0.18478 0.23721,-0.33851 0.60001,-0.6c0.68835,-0.49614 0.6,-0.8 0.8,-1.2c0.2,-0.4 0.29926,-0.78156 0.39999,-1.60001c0.02444,-0.1985 0.09724,-0.56474 0.2,-1c0.04594,-0.19464 0.2,-0.79999 0.2,-1c0,-0.2 0,-0.59999 0,-0.8c0,-0.6 0.12347,-0.81522 0.2,-1c0.10825,-0.26131 0.07738,-0.58352 0.60001,-0.8c0.18478,-0.07653 0.39999,0 0.60001,0c0.39999,0 0.53868,0.29176 0.8,0.4c0.18478,0.07654 0.12347,0.21523 0.2,0.4c0.10825,0.26131 0.39999,0.4 0.39999,0.8c0,0.2 0.2,0.6 0.2,1c0,0 0.2,0.2 0.2,0.6c0,0.2 0.04694,0.43045 0.2,0.8c0.10825,0.26131 0.2,0.59998 0.2,0.8c0,0.60001 0,1 0,1.2c0,0.2 0,0.39999 0,0.6c0,0.4 0.2,0.60001 0.4,0.8c0.2,0.2 0.37054,0.43462 0.6,0.60001c0.3628,0.2615 0.5387,0.49176 0.8,0.6c0.18478,0.07653 0.41523,-0.07655 0.60001,0c0.26131,0.10825 0.61522,0.12347 0.8,0.2c0.26131,0.10824 0.39999,0.2 0.6,0.2c0.2,0 0.41523,-0.12347 0.60001,-0.2c0.26131,-0.10825 0.58353,-0.47737 0.8,-1c0.22961,-0.55433 0.15797,-0.81569 0.39999,-1.4c0.17113,-0.41318 0.49725,-0.76475 0.60001,-1.2c0.0919,-0.38931 0.12346,-0.41522 0.2,-0.60001c0.10825,-0.26131 0.2,-0.59998 0.2,-1c0,-0.39999 0,-0.59998 0,-1c0,-0.2 0,-0.59999 0,-1c0,-0.4 0,-0.8 0,-1.2c0,0 -0.2,-0.2 -0.2,-0.6c0,-0.2 -0.2,-0.4 -0.2,-0.8c0,-0.4 -0.09176,-0.73869 -0.2,-1c-0.15308,-0.36955 -0.09724,-0.76476 -0.2,-1.2c-0.04594,-0.19465 0,-0.6 0,-0.8c0,-0.2 -0.04694,-0.63045 -0.2,-1c-0.10825,-0.26131 -0.2,-0.4 -0.2,-1c0,-0.2 -0.2,-0.4 -0.2,-0.6c0,-0.2 0,-0.6 0,-0.8c0,-0.4 0.08284,-0.71716 -0.2,-1c-0.14143,-0.14142 -0.29726,-0.16475 -0.39999,-0.6c-0.0919,-0.3893 -0.2,-0.8 -0.2,-1c0,-0.2 -0.12346,-0.41523 -0.2,-0.6c-0.10824,-0.26131 -0.2,-0.4 -0.2,-0.6c0,-0.2 -0.2,-0.4 -0.2,-0.4c0,-0.2 0,-0.4 0,-0.6c0,0 0,0 0,-0.2c0,-0.2 0.14142,-0.25858 0,-0.4c-0.14143,-0.14143 -0.2,0 -0.2,-0.2c0,-0.2 0.14142,-0.45858 0,-0.6c-0.14143,-0.14142 -0.2,0 -0.2,-0.4c0,0 0,0 0,-0.2l0,-0.2l0,0l-0.2,0" id="svg_29" fill-opacity="null" stroke-opacity="null" stroke-width="1.5" stroke="#000000" fill="none"/>
  <path d="m80.5,32.91667c0,0.2 0.09177,0.33868 0.2,0.6c0.07655,0.18478 0.05859,0.05858 0.2,0.2c0.14142,0.14142 0.4,0.4 0.6,0.4c0.2,0 0.37055,0.23462 0.60001,0.4c1.08839,0.78447 1.44453,0.7448 2.2,1.4c0.42735,0.37064 0.8,1 1.2,1.4c0.2,0.2 0.36489,0.41958 0.60001,0.8c0.52573,0.85065 0.95405,1.20535 1,1.4c0.10275,0.43525 0.33851,0.6372 0.6,1c0.16538,0.22945 0.33851,0.6372 0.6,1c0.16537,0.22945 0.43462,0.57055 0.6,0.8c0.26149,0.3628 0.49725,0.76475 0.60001,1.2c0.0919,0.3893 0.13593,0.80516 0.2,1.2c0.1013,0.62429 0.2,0.8 0.2,1.4c0,0.2 0,0.6 0,1.2c0,0.2 0.28284,0.71716 0,1c-0.14142,0.14142 -0.15405,0.20535 -0.2,0.4c-0.10275,0.43525 -0.2,1 -0.2,1.2c0,0.2 -0.17054,0.43462 -0.39999,0.6c-0.36279,0.26149 -0.46751,0.662 -0.8,1.2c-0.1487,0.2406 -0.45858,0.25858 -0.60001,0.4c-0.14142,0.14142 -0.2,0.2 -0.39999,0.6c0,0 -0.2,0.2 -0.2,0.2c-0.2,0.2 -0.39999,0.2 -0.39999,0.2c-0.2,0.2 -0.39999,0.2 -0.60001,0.2l-0.2,0l-0.2,0" id="svg_30" fill-opacity="null" stroke-opacity="null" stroke-width="1.5" stroke="#000000" fill="none"/>
  <path d="m65.5,26.31667c0,0 0,-0.4 0,-1.2c0,-0.8 -0.15574,-1.26371 0.4,-2.4c0.31682,-0.64779 1.28318,-1.35221 1.60001,-2c0.27787,-0.56814 0.60516,-0.93593 1,-1c0.62428,-0.10131 1.17365,-0.65772 1.99999,-1c1.16863,-0.48406 1.8,-0.4 2.60001,-0.6c0.8,-0.2 1.39999,-0.2 2,-0.2c0.6,0 1.2,0 2,0c0.39999,0 0.96252,0.24137 1.39999,0.6c0.55767,0.45718 1.24234,0.74282 1.8,1.2c0.43747,0.35864 0.9026,0.9188 1.2,1.4c0.3325,0.538 0.60001,1 0.8,1.6c0.2,0.6 0.33593,1.20516 0.39999,1.6c0.1013,0.62429 0.2,1 0.2,1.4c0,0.6 0,1 0,1.6c0,0.4 -0.15405,1.00535 -0.2,1.2c-0.10275,0.43525 -0.48318,0.95222 -0.8,1.6c-0.27785,0.56814 -0.39999,0.8 -0.6,1.2c-0.2,0.4 -0.33852,0.6372 -0.60001,1c-0.16537,0.22946 -0.61069,0.5081 -1,0.6c-0.87051,0.2055 -1.21569,0.75797 -1.8,1c-0.82634,0.34228 -1.40258,0.56796 -1.6,0.6c-0.62429,0.10131 -1,0.2 -1.60001,0.2c-0.39999,0 -0.6,0 -1.2,0c-0.39999,0 -0.91715,0.28284 -1.2,0c-0.14143,-0.14142 -0.25858,-0.25858 -0.4,-0.4c-0.14142,-0.14142 -0.36475,-0.09725 -0.8,-0.2c-0.19466,-0.04595 -0.60001,-0.2 -0.8,-0.2l-0.4,-0.4" id="svg_35" fill-opacity="null" stroke-opacity="null" stroke-width="1.5" stroke="#000000" fill="none"/>
  <path d="m56.5,42.91666c-0.4,-0.2 -1,-0.2 -1.4,-0.2c-0.6,0 -1.4,0 -2.4,0c-1,0 -2,0 -3,0c-0.8,0 -1.58155,0.09924 -2.4,0.2c-0.99251,0.12218 -2.20341,-0.08248 -3.2,0c-1.21241,0.10034 -1.56475,0.29725 -2,0.4c-0.3893,0.0919 -0.78683,0.02886 -1.2,0.2c-0.58431,0.24203 -1.2132,0.17553 -1.6,0.4c-0.6237,0.36195 -0.8107,0.5081 -1.2,0.6c-0.43525,0.10275 -0.62068,0.38126 -0.8,0.6c-0.45718,0.55767 -0.87702,1.2744 -1.4,2c-0.16538,0.22945 -0.2,0.6 -0.2,1.2c0,0.4 0,1 0,1c0.2,0.6 0.30389,1.00775 0.4,1.6c0.10131,0.62429 0.46924,0.74109 0.8,1.2c0.26149,0.3628 0.6372,0.93851 1,1.2c0.22945,0.16538 0.58057,0.24484 1,0.4c0.7734,0.2861 1.2,0.2 1.8,0.4c0.6,0.2 0.98759,0.49966 2.2,0.6c0.39864,0.03299 0.98056,0.04484 1.4,0.2c0.7734,0.2861 1.6,0.2 1.8,0.2c0.6,0 1,0 1.4,0c1.2,0 1.4,0 2,0c0.8,0 1.2,0 1.4,0c0.4,0 0.76475,-0.09725 1.2,-0.2c0.3893,-0.0919 0.63045,0.15307 1,0c0.26131,-0.10824 0.6,-0.2 0.8,-0.2c0.4,0 0.6,-0.2 0.8,-0.2c0.2,0 0.2,-0.2 0.8,-0.2c0.2,0 0.6,-0.2 0.8,-0.2c0.4,0 0.8,-0.2 1,-0.2c0.4,0 0.97571,-0.09869 1.6,-0.2c0.59225,-0.09611 1.2,0 1.4,0c0.2,0 0.49725,0.03525 0.6,-0.4c0.0919,-0.3893 0,-0.6 0,-0.8c0,-0.2 0.09176,-0.33869 0.2,-0.6c0.15308,-0.36955 0,-0.6 0,-1c0,-0.2 0,-0.6 0,-1.2c0,-0.4 0.03204,-0.60258 0,-0.8c-0.10131,-0.62429 -0.2,-1.2 -0.2,-1.6c0,-0.2 -0.09725,-0.56475 -0.2,-1c-0.04595,-0.19465 0,-0.6 -0.2,-1c-0.2,-0.4 -0.49176,-0.53868 -0.6,-0.8c-0.07654,-0.18478 -0.05858,-0.65858 -0.2,-0.8c-0.14142,-0.14142 -0.2,-0.2 -0.4,-0.2c0,0 0,-0.2 0,-0.2c0,-0.2 -0.2,-0.2 -0.4,-0.2c0,0 -0.2,-0.2 -0.4,-0.4c0,0 -0.2,0 -0.4,0c0,0 0,0 -0.2,0c0,0 -0.2,0 -0.2,0c-0.2,0 -0.4,0 -0.4,0c-0.2,0 -0.2,0 -0.2,0l-0.2,0l-0.2,0l0,0" id="svg_38" stroke-opacity="null" stroke-width="1.5" stroke="#000000" fill="#000000"/>
  <path d="m39.5,53.31667c0,0.2 0,0.4 0,0.6c0,0.6 0,1.4 0,2.2c0,0.6 0,1.6 0,2c0,0.8 0.2,1.8 0.2,2.2c0,0.8 0,1.4 0,2c0,0.4 0,1 0,1.4c0,0.6 0,1 0,1.4c0,0.6 0.2,1.2 0.2,1.6c0,0.2 0,0.60001 0,1c0,0.2 0,0.60001 0,0.8c0,0.2 0,0.4 0,0.60001c0,0.39999 0,0.8 0,1.39999c0,0.4 0.09725,0.76476 0.2,1.2c0.04595,0.19466 0,0.60001 0,0.8c0,0.4 0,0.60001 0,0.8c0,0.2 0,0.2 0,0.39999c0,0 0,0.2 0,0.4c0,0.2 -0.14142,0.45858 0,0.6c0.14142,0.14143 0.2,0 0.4,0c0,0 0.2,0 0.2,0c0,0 0.2,0 0.2,0c0.2,0 0.2,0 0.2,0c0.2,0 0.13869,0.09177 0.4,0.2c0.18477,0.07655 0.2,0 0.2,0c0.2,0 0.4,0 0.4,0c0.2,0 0.2,-0.2 0.2,-0.2c0,-0.2 -0.07654,-0.21523 0,-0.39999c0.10824,-0.26131 0.2,-0.2 0.2,-0.4c0,-0.2 -0.14143,-0.25858 0,-0.4c0.28284,-0.28284 0.4,-0.39999 0.4,-0.8c0,-0.2 0,-0.39999 0,-0.8c0,-0.4 0,-0.6 0,-0.8c0,-0.2 -0.15307,-0.63046 0,-1c0.10824,-0.26131 0.2,-0.8 0.2,-1.2c0,-0.4 -0.22961,-0.84567 0,-1.4c0.10824,-0.26131 0.2,-0.6 0.2,-0.8c0,-0.39999 0,-0.8 0,-1.2c0,-0.39999 0,-0.6 0,-0.8c0,-0.6 0,-1 0,-1.8c0,-0.4 0,-0.8 0,-1.4c0,-0.6 -0.09869,-1.17571 -0.2,-1.8c-0.09611,-0.59225 0,-1.6 0,-2.4c0,-0.4 0,-0.8 0,-1.2c0,-0.2 0,-0.6 0,-1c0,-0.4 0,-0.8 0,-1l0,-0.2l-0.2,0" id="svg_39" stroke-opacity="null" stroke-width="1.5" stroke="#000000" fill="none"/>
  <path d="m54.1,53.11666c0,0.2 0,0.2 0,0.4c0,0.2 0,0.2 0,0.4c0,0.2 0,0.6 0,1c0,0.6 0,1 0,1.2c0,0.4 0.2,0.8 0.2,1.2c0,0.4 0.2,0.8 0.2,1c0,0.4 0,0.8 0,1.4c0,0.6 0,0.8 0,1.2c0,0.2 0,0.6 0,1.2c0,0.4 0.2,0.8 0.2,1.2c0,0.4 0,0.8 0,1.2c0,0.2 0,0.39999 0,0.8c0,0.4 0.09725,0.76476 0.2,1.2c0.0919,0.3893 0,1 0,1.39999c0,0.4 0,0.60001 0,1.2c0,0 0,0.2 0,0.6c0,0.2 0,0.4 0,0.8c0,0.2 0,0.60001 0,0.8c0,0.4 0,0.6 0,0.8c0,0.39999 0.2,0.39999 0.2,0.6c0,0.2 0,0.2 0,0.4c0,0.2 0,0.39999 0,0.39999c0,0.2 0,0.2 0.2,0.2c0.2,0 0.4,0 0.6,0c0.2,0 0.4,0 0.6,0c0.2,0 0.2,0 0.4,0c0.2,0 0.13869,-0.09177 0.4,-0.2c0.55433,-0.22961 0.8,0 0.8,0c0,0 -0.07653,-0.21522 0,-0.39999c0.10824,-0.26131 -0.22426,-0.57574 0.2,-1c0.14142,-0.14143 0.2,-0.4 0.2,-0.60001c0,-0.2 0,-0.39999 0,-0.8c0,-0.39999 0,-1 0,-1.39999c0,-0.4 0,-0.8 0,-1.4c0,-0.6 0,-1 0,-1.4c0,-0.39999 0,-1 0,-1.39999c0,-0.2 0,-0.4 0,-0.8c0,-0.2 0,-0.6 0,-1.2c0,-0.4 0,-0.8 0,-1.2c0,-0.6 0.13785,-1.01605 0,-1.6c-0.10275,-0.43525 -0.2,-0.8 -0.2,-1.4c0,-0.4 -0.29725,-0.96475 -0.4,-1.4c-0.0919,-0.3893 -0.09725,-0.76475 -0.2,-1.2c-0.0919,-0.3893 0,-0.4 0,-0.8c0,-0.4 -0.2,-0.8 -0.2,-1c0,-0.2 0,-0.4 0,-0.6l-0.2,-0.2" id="svg_40" stroke-opacity="null" stroke-width="1.5" stroke="#000000" fill="none"/>
 </g>
 <g>
  <title>Layer 2</title>
  <g id="svg_2" transform="matrix(0.409283, 0, 0, 0.409283, 18.9927, 15.8223)">
   <svg width="24" height="24" viewBox="0 0 24 24" id="svg_15" x="45.76015" y="-20.10179">
    <path d="m24,13.616l0,-3.232c-1.651,-0.587 -2.694,-0.752 -3.219,-2.019l0,-0.001c-0.527,-1.271 0.1,-2.134 0.847,-3.707l-2.285,-2.285c-1.561,0.742 -2.433,1.375 -3.707,0.847l-0.001,0c-1.269,-0.526 -1.435,-1.576 -2.019,-3.219l-3.232,0c-0.582,1.635 -0.749,2.692 -2.019,3.219l-0.001,0c-1.271,0.528 -2.132,-0.098 -3.707,-0.847l-2.285,2.285c0.745,1.568 1.375,2.434 0.847,3.707c-0.527,1.271 -1.584,1.438 -3.219,2.02l0,3.232c1.632,0.58 2.692,0.749 3.219,2.019c0.53,1.282 -0.114,2.166 -0.847,3.707l2.285,2.286c1.562,-0.743 2.434,-1.375 3.707,-0.847l0.001,0c1.27,0.526 1.436,1.579 2.019,3.219l3.232,0c0.582,-1.636 0.75,-2.69 2.027,-3.222l0.001,0c1.262,-0.524 2.12,0.101 3.698,0.851l2.285,-2.286c-0.744,-1.563 -1.375,-2.433 -0.848,-3.706c0.527,-1.271 1.588,-1.44 3.221,-2.021zm-12,2.384c-2.209,0 -4,-1.791 -4,-4s1.791,-4 4,-4s4,1.791 4,4s-1.791,4 -4,4z" id="svg_24"/>
   </svg>
  </g>
  <g id="svg_7" transform="matrix(0.409283, 0, 0, 0.409283, 18.9927, 15.8223)">
   <svg width="24" height="24" viewBox="0 0 24 24" id="svg_26" x="68.64672" y="-24.43168">
    <path d="m24,13.616l0,-3.232c-1.651,-0.587 -2.694,-0.752 -3.219,-2.019l0,-0.001c-0.527,-1.271 0.1,-2.134 0.847,-3.707l-2.285,-2.285c-1.561,0.742 -2.433,1.375 -3.707,0.847l-0.001,0c-1.269,-0.526 -1.435,-1.576 -2.019,-3.219l-3.232,0c-0.582,1.635 -0.749,2.692 -2.019,3.219l-0.001,0c-1.271,0.528 -2.132,-0.098 -3.707,-0.847l-2.285,2.285c0.745,1.568 1.375,2.434 0.847,3.707c-0.527,1.271 -1.584,1.438 -3.219,2.02l0,3.232c1.632,0.58 2.692,0.749 3.219,2.019c0.53,1.282 -0.114,2.166 -0.847,3.707l2.285,2.286c1.562,-0.743 2.434,-1.375 3.707,-0.847l0.001,0c1.27,0.526 1.436,1.579 2.019,3.219l3.232,0c0.582,-1.636 0.75,-2.69 2.027,-3.222l0.001,0c1.262,-0.524 2.12,0.101 3.698,0.851l2.285,-2.286c-0.744,-1.563 -1.375,-2.433 -0.848,-3.706c0.527,-1.271 1.588,-1.44 3.221,-2.021zm-12,2.384c-2.209,0 -4,-1.791 -4,-4s1.791,-4 4,-4s4,1.791 4,4s-1.791,4 -4,4z" id="svg_27"/>
   </svg>
  </g>
  <g id="svg_12" transform="rotate(32, 48.7089, 19.595) matrix(0.409283, 0, 0, 0.409283, 18.9927, 15.8223)">
   <svg width="24" height="24" viewBox="0 0 24 24" id="svg_28" x="60.60549" y="-2.78221">
    <path d="m24,13.616l0,-3.232c-1.651,-0.587 -2.694,-0.752 -3.219,-2.019l0,-0.001c-0.527,-1.271 0.1,-2.134 0.847,-3.707l-2.285,-2.285c-1.561,0.742 -2.433,1.375 -3.707,0.847l-0.001,0c-1.269,-0.526 -1.435,-1.576 -2.019,-3.219l-3.232,0c-0.582,1.635 -0.749,2.692 -2.019,3.219l-0.001,0c-1.271,0.528 -2.132,-0.098 -3.707,-0.847l-2.285,2.285c0.745,1.568 1.375,2.434 0.847,3.707c-0.527,1.271 -1.584,1.438 -3.219,2.02l0,3.232c1.632,0.58 2.692,0.749 3.219,2.019c0.53,1.282 -0.114,2.166 -0.847,3.707l2.285,2.286c1.562,-0.743 2.434,-1.375 3.707,-0.847l0.001,0c1.27,0.526 1.436,1.579 2.019,3.219l3.232,0c0.582,-1.636 0.75,-2.69 2.027,-3.222l0.001,0c1.262,-0.524 2.12,0.101 3.698,0.851l2.285,-2.286c-0.744,-1.563 -1.375,-2.433 -0.848,-3.706c0.527,-1.271 1.588,-1.44 3.221,-2.021zm-12,2.384c-2.209,0 -4,-1.791 -4,-4s1.791,-4 4,-4s4,1.791 4,4s-1.791,4 -4,4z" id="svg_31"/>
   </svg>
  </g>
  <path fill="none" stroke="#000000" stroke-width="1.5" id="svg_14" d="m29.87342,22.80591c0,0 0.30025,-0.17533 0.75949,-0.50633c0.29045,-0.20934 0.40945,-0.5256 0.50633,-0.75949c0.13701,-0.33078 0.5131,-0.195 0.75949,-0.25316c0.55095,-0.13006 0.58048,-0.32732 0.75949,-0.50633c0.17902,-0.17902 0.55342,-0.17533 1.01266,-0.50633c0.29045,-0.20934 0.12007,-0.29097 0.25317,-0.50633c0.29761,-0.48155 0.75949,-0.25316 0.75949,-0.50633c0,-0.25316 0,-0.75949 0,-0.75949c0.25316,0 0.25316,0 0.25316,-0.25316c0,-0.50633 0,-0.75949 0,-0.75949c0,-0.25316 0,-0.50633 0,-0.75949c0,-0.25316 -0.1231,-0.20854 -0.25316,-0.75949c-0.05817,-0.24639 0,-0.25316 0,-0.50633c0,-0.25317 -0.25317,-0.75949 -0.25317,-1.26582c0,-0.50633 -0.62266,-0.77304 -0.50633,-1.26582c0.13006,-0.55095 0.37809,-0.98191 0.50633,-1.77215c0.12166,-0.74969 0.11615,-0.93505 0.25317,-1.26582c0.19376,-0.46779 0.1231,-0.71487 0.25316,-1.26582c0.05817,-0.24639 0.46188,-0.27795 0.75949,-0.75949c0.26619,-0.43071 0.48547,-0.35111 0.75949,-1.01266c0.29065,-0.70168 0.29699,-0.97537 0.50633,-1.26582c0.331,-0.45924 0.50633,-0.50633 0.75949,-0.75949c0.25316,-0.25316 0.46904,-0.29699 0.75949,-0.50633c0.45924,-0.331 0.83364,-0.32731 1.01266,-0.50633c0.17902,-0.17901 0.20177,-0.3181 0.50633,-0.50633c0.68101,-0.42089 1.26582,-0.50633 1.77215,-0.50633c0.50633,0 0.54487,-0.0594 1.01266,-0.25316c0.33078,-0.13701 0.5131,-0.195 0.75949,-0.25316c0.55095,-0.13006 0.75949,-0.25316 1.26582,-0.25316c0.25316,0 0.50633,0 0.50633,0c0.50633,-0.25316 0.75949,-0.25316 1.26582,-0.25316c0.50633,0 0.75949,0 1.01266,0c0.25316,0 0.50633,0 0.75949,0c0.50633,0 1.01266,0 1.26582,0c0.50633,0 1.01266,0 1.01266,0c0.50633,0 1.03193,-0.09688 1.26582,0c0.33077,0.13701 0.50633,0.25316 0.75949,0.25316c0.25317,0 0.58048,0.32731 0.75949,0.50633c0.35803,0.35803 0.58048,0.07415 0.75949,0.25316c0.17901,0.17901 0.55342,-0.07784 1.01266,0.25316c0.29045,0.20934 0.50633,0.25316 0.75949,0.50633c0.25316,0.25316 0.50633,0.50633 0.75949,0.75949c0.25317,0.25317 0.50633,0.25316 0.50633,0.25316c0.25317,0.25316 0.27989,0.39311 0.50633,0.50633c1.13218,0.56609 1.26582,1.51899 1.26582,1.77215c0,0.50633 0.04382,0.46905 0.25317,0.75949c0.331,0.45924 0.37627,0.71487 0.50633,1.26582c0.11633,0.49278 0.1231,0.71487 0.25317,1.26582c0.05817,0.24639 0,0.50633 0,0.75949c0,0.50633 0,0.75949 0,1.26582c0,0.50633 0,0.75949 0,1.26582c0,0.25317 0.11633,0.77304 0,1.26582c-0.13006,0.55095 -0.39,1.0262 -0.50633,1.51899c-0.13006,0.55095 -0.37627,0.96804 -0.50633,1.51899c-0.05817,0.24639 0,0.50633 0,0.75949c0,0.50633 -0.0594,0.79803 -0.25316,1.26582c-0.13701,0.33078 -0.29699,0.46905 -0.50633,0.75949c-0.331,0.45924 -0.50633,0.75949 -0.50633,0.75949c-0.25317,0.50633 -0.62249,0.68188 -0.75949,1.01266c-0.09688,0.23389 -0.25317,0.50633 -0.50633,0.75949c-0.25317,0.25317 -0.15628,0.5256 -0.25317,0.75949c-0.13701,0.33077 -0.46905,0.80331 -0.75949,1.01266c-0.45924,0.331 -0.68188,0.87565 -1.01266,1.01266c-0.23389,0.09688 -0.25316,0.25316 -0.50633,0.50633c-0.25317,0.25316 -0.42872,0.36932 -0.75949,0.50633c-0.23389,0.09688 -0.46171,0.1231 -1.01266,0.25316c-0.24639,0.05816 -0.79804,0.0594 -1.26582,0.25316c-0.33077,0.13701 -0.71487,0.37627 -1.26582,0.50633c-0.24639,0.05816 -0.75949,0.25316 -1.01266,0.25316c-0.50633,0 -0.75949,0 -0.75949,0c-0.25316,0 -0.75949,0 -1.26582,0c-0.25317,0 -0.50633,0 -0.75949,0c-0.25317,0 -0.75949,-0.25316 -0.75949,-0.25316c-0.25316,0 -0.25316,-0.25316 -0.50633,-0.25316c-0.25317,0 -0.5256,-0.15628 -0.75949,-0.25316c-0.33077,-0.13701 -0.17555,-0.36932 -0.50633,-0.50633c-0.23389,-0.09688 -0.5256,-0.15628 -0.75949,-0.25317c-0.33077,-0.13701 -0.17555,-0.62248 -0.50633,-0.75949c-0.23389,-0.09688 -0.50633,-0.25316 -0.75949,-0.50633c-0.25317,-0.25317 -0.50633,-0.25317 -0.75949,-0.50633c-0.25317,-0.25317 -0.32732,-0.07415 -0.50633,-0.25316c-0.17901,-0.17901 -0.17556,-0.36932 -0.50633,-0.50633c-0.23389,-0.09688 -0.25317,0 -0.75949,0c-0.25317,0 -0.56414,0.03748 -1.26582,-0.25316c-0.33078,-0.13701 -0.54487,-0.0594 -1.01266,-0.25316c-0.33078,-0.13701 -0.50633,-0.25316 -0.75949,-0.25316c-0.25317,0 -0.50633,-0.25317 -0.75949,-0.25317c-0.25316,0 -0.54487,0.19376 -1.01266,0c-0.33078,-0.13701 -0.50633,-0.25316 -0.75949,-0.25316c-0.50633,0 -0.75949,0 -1.01266,0c-0.25316,0 -0.50633,0 -0.75949,0c-0.25317,0 -0.25317,0 -0.25317,0.25316c0,0 -0.50633,0 -0.75949,0l0,0"/>
  <path fill="none" stroke="#ffff00" stroke-width="1.5" id="svg_17" d="m20.7595,11.4135c0,-0.25316 -0.07784,-0.30025 0.25316,-0.75949c0.41869,-0.5809 1.01266,-0.75949 1.26582,-1.01266c0.25316,-0.25316 0.50633,-0.25316 0.50633,-0.25316c0.25316,0 0.54487,-0.19376 1.01266,0c0.33078,0.13701 0.68188,0.62248 1.01266,0.75949c0.23389,0.09688 0.5131,0.31133 0.75949,0.25316c0.55095,-0.13006 0.97538,-0.29699 1.26582,-0.50633c0.45924,-0.331 1.01266,-0.50633 1.26582,-0.50633c0.25316,0 0.25316,0 0.50633,0l0.25316,0.25316l0,0.25316l0.25316,0.25317"/>
  <path fill="none" stroke="#ffff00" stroke-width="1.5" id="svg_18" d="m22.53165,3.31224c0,0 0.25316,-0.25316 0.25316,-0.25316c0,0 0,-0.25316 0,-0.25316c0.25316,0 0.25316,0 0.50633,0c0,0 0.32731,-0.17901 0.50633,0c0.17901,0.17901 0.75949,0.50633 1.01266,0.75949c0.25316,0.25316 0.50633,0.50633 0.75949,0.50633c0,0 0.42872,-0.11615 0.75949,-0.25316c0.70168,-0.29065 1.56608,-0.17533 2.02532,-0.50633c0.29045,-0.20934 0.58048,-0.43218 0.75949,-0.25316c0.17901,0.17901 -0.09688,0.27244 0,0.50633c0.13701,0.33078 0.75949,0.25316 1.01266,0.50633l0.75949,0.25316"/>
  <path fill="none" stroke="#ffff00" stroke-width="1.5" id="svg_19" d="m62.78482,4.57806c0,0 0.01927,-0.15628 0.25317,-0.25316c0.33077,-0.13701 0.50633,-0.25316 0.75949,-0.25316c0,0 0.25315,-0.25316 0.75949,-0.25316c0,0 0.25317,0 0.75949,0.25316c0.50633,0.25317 0.7595,0.50633 1.01266,0.50633c0.25317,0 0.75949,0 1.01266,0c0.25316,0 0.72221,-0.80331 1.01266,-1.01266c0.45924,-0.331 0.58047,-0.32731 0.75949,-0.50633c0.17902,-0.17902 0.7595,0 1.26582,0l0.50632,0l0.25316,0"/>
  <path fill="none" stroke="#ffff00" stroke-width="1.5" id="svg_20" d="m62.27849,10.65401c0,-0.25316 0.29699,-0.46904 0.50633,-0.75949c0.331,-0.45924 0.53111,-1.22137 1.01266,-1.51899c0.21535,-0.1331 0.50633,0 0.75949,0c0,0 0.59397,0.43176 1.01266,1.01266c0.33099,0.45924 0.76627,0.70133 1.01266,0.75949c0.55095,0.13006 0.76627,0.31133 1.01266,0.25316c0.55095,-0.13006 1.01266,-0.50633 1.51899,-1.01266c0.25317,-0.25317 0.50633,-0.50633 0.75951,-0.50633c0.25316,0 0.50632,-0.25316 0.75948,-0.25316l1.01266,-0.50633l0.50632,-0.25316"/>
  <path fill="none" stroke="#ffff00" stroke-width="1.5" id="svg_21" d="m63.29115,15.7173c0.25317,-0.25316 0.75949,-0.75949 1.26582,-1.01266c0.50633,-0.25317 1.26582,-0.50633 1.51899,-0.50633c0.50632,0 0.75949,0 1.01266,0.25316c0.25317,0.25317 0.25317,0.25317 0.50632,0.25317c0.50633,0 1.24915,-0.28969 1.77216,-0.50633c0.73962,-0.30637 0.75948,-0.75949 1.26582,-1.01266l0.25317,0"/>
  <path fill="none" stroke="#ffff00" stroke-width="1.5" id="svg_22" d="m61.51899,20.27426c0.25317,0 0.25317,0 0.25317,0c0,0.25316 0.25316,0.25316 0.25316,0.25316c0,0 0,0.25316 0.25317,0.25316c0.25316,0 0.25316,0 0.50633,0l0,0"/>
  <path fill="none" stroke="#ffff00" stroke-width="1.5" fill-opacity="null" id="svg_25" d="m30.88608,16.47679c-0.25316,0 -0.46171,-0.1231 -1.01266,-0.25316c-0.24639,-0.05816 -0.50633,-0.25317 -0.50633,-0.25317c-0.25317,0 -0.75949,0 -1.01266,0c0,0 -0.32731,-0.17901 -0.50633,0c-0.17901,0.17902 -0.26671,0.39 -0.75949,0.50633c-0.55095,0.13006 -1.03193,0.40945 -1.26582,0.50633c-0.33078,0.13701 -0.47559,0.12824 -1.26582,0c-0.49979,-0.0811 -0.7973,-0.12007 -1.01266,-0.25316c-0.48155,-0.29761 -0.50633,-0.50633 -0.75949,-0.75949c0,0 -0.25316,-0.25316 -0.50633,-0.25316l-0.75949,0l-0.25316,0"/>
 </g>
</svg>
