<svg width="99.99999999999999" height="99.99999999999999" xmlns="http://www.w3.org/2000/svg">
 <!-- Created with Method Draw - http://github.com/duopixel/Method-Draw/ -->

 <g>
  <title>background</title>
  <rect x="-1" y="-1" width="102" height="102" id="canvas_background" fill="none"/>
  <g id="canvasGrid" display="none">
   <rect id="svg_1" width="100%" height="100%" x="0" y="0" stroke-width="0" fill="url(#gridpattern)"/>
  </g>
 </g>
 <g>
  <title>Layer 1</title>
  <path fill="none" stroke="#ffffff" stroke-width="1.5" fill-opacity="null" id="svg_86" d="m41.97484,39.92327c0.16,0 0.16,0 0.16,0.16c0,0.16 0,0.16 0,0.32c0,0.32 0.0778,0.4518 0.16,0.8c0.07352,0.31144 0,0.64 0,0.8c0,0.16 0.11314,0.36686 0,0.48c-0.11314,0.11314 -0.29644,0.02769 -0.48,0.16c-0.29024,0.20919 -0.25504,0.24208 -0.64,0.48c-0.4304,0.266 -0.59095,0.23341 -0.8,0.32c-0.29564,0.12246 -0.64,0.16 -0.8,0.16c-0.32,0 -0.62057,0.07896 -1.12,0.16c-0.4738,0.07689 -0.96,0 -1.12,0c-0.32,0 -0.48,0 -0.8,0c-0.16,0 -0.32856,-0.07352 -0.64,0c-0.3482,0.0822 -0.43095,0.39341 -0.64,0.48c-0.14782,0.06123 -0.32,0 -0.48,0.16c-0.16,0.16 -0.32,0.32 -0.48,0.48c-0.16,0.16 -0.16,0.32 -0.32,0.32c-0.16,0 -0.16,0.16 -0.16,0.16c0,0.16 -0.04686,0.20686 -0.16,0.32c-0.11314,0.11314 -0.16,0.16 -0.16,0.16c0,0.16 -0.16,0.16 -0.16,0.16c0,0.16 -0.16,0.16 -0.16,0.32c0,0.16 -0.16,0.16 -0.16,0.16c0,0.16 -0.07341,0.43095 -0.16,0.64c-0.06123,0.14782 -0.16,0.32 -0.16,0.48c0,0.32 -0.07896,0.46057 -0.16,0.96c-0.05126,0.31587 0,0.48 0,0.64c0,0.16 0,0.32 0,0.48c0,0.32 0,0.48 0,0.64c0,0.16 0,0.32 0,0.64c0,0.16 0.16,0.32 0.16,0.48c0,0.16 0.07341,0.27095 0.16,0.48c0.06123,0.14782 -0.06123,0.33218 0,0.48c0.08659,0.20905 0.09877,0.33218 0.16,0.48c0.08659,0.20905 0.16,0.16 0.16,0.32c0,0.16 0.07341,0.11095 0.16,0.32c0.06123,0.14782 0.16,0.16 0.16,0.32c0,0.16 -0.03676,0.16428 0,0.32c0.0822,0.3482 0.3978,0.6118 0.48,0.96c0.03676,0.15572 0.09877,0.33218 0.16,0.48c0.08659,0.20905 0.32,0.32 0.48,0.48c0.16,0.16 0.3477,0.45644 0.48,0.64c0.20919,0.29024 0.32,0.48 0.48,0.64c0.16,0.16 0.33218,0.25877 0.48,0.32c0.20905,0.08659 0.65056,0.46043 0.96,0.64c0.49896,0.28955 0.7718,0.5578 1.12,0.64c0.15572,0.03676 0.17218,0.09877 0.32,0.16c0.20905,0.08659 0.27095,0.23341 0.48,0.32c0.14782,0.06123 0.36686,-0.11314 0.48,0c0.11314,0.11314 0.16,0.16 0.48,0.32c0,0 0.32,0.16 0.48,0.16c0.16,0 0.33218,0.09877 0.48,0.16c0.20905,0.08659 0.43095,0.23341 0.64,0.32c0.29564,0.12246 0.64,0 0.8,0c0.32,0 0.64,0 0.96,0c0.48,0 0.64,0 0.96,0c0.16,0 0.33218,0.06123 0.48,0c0.20905,-0.08659 0.2918,-0.2378 0.64,-0.32c0.31144,-0.07352 0.57877,-0.17218 0.64,-0.32c0.08659,-0.20905 0.32,-0.32 0.48,-0.48c0.16,-0.16 0.45191,-0.01566 0.64,-0.32c0.08412,-0.1361 0.16,-0.32 0.16,-0.48c0,-0.16 0.16,-0.32 0.16,-0.48c0,-0.16 0,-0.32 0,-0.48c0,-0.16 -0.16,-0.48 -0.32,-0.8c-0.16,-0.32 -0.39341,-0.59095 -0.48,-0.8c-0.06123,-0.14782 -0.16,-0.32 -0.32,-0.48c-0.16,-0.16 -0.11095,-0.39341 -0.32,-0.48c-0.14782,-0.06123 -0.27095,-0.23341 -0.48,-0.32c-0.14782,-0.06123 -0.23341,-0.11095 -0.32,-0.32c-0.06123,-0.14782 -0.32,-0.16 -0.32,-0.16c-0.16,0 -0.16,-0.16 -0.32,-0.16c-0.16,0 -0.32,-0.16 -0.32,-0.32l-0.16,0l-0.16,0"/>
  <path fill="none" stroke="#ffffff" stroke-width="1.5" fill-opacity="null" id="svg_87" d="m51.73485,39.12329c0,0 0.07341,0.11095 0.16,0.32c0.06123,0.14782 0,0.32 0,0.48c0,0.16 0,0.32 0.16,0.48l0,0.16l0,0.16l0,0.16"/>
  <path fill="none" stroke="#ffffff" stroke-width="1.5" fill-opacity="null" id="svg_91" d="m38.45484,60.40329c0,0.16 0.16,0.16 0.16,0.32c0,0.16 -0.05865,0.6436 0,1.12c0.0806,0.65475 0.16,1.43999 0.16,1.92001c0,0.48001 0,0.96002 0,1.44c0,0.48 -0.07895,0.78057 -0.16,1.28001c-0.02563,0.15794 0,0.96001 0,1.28001c0,0.16 -0.0778,0.45181 -0.16,0.8c-0.11028,0.46716 0,0.8 0,1.28c0,0.16 -0.0778,0.45181 -0.16,0.8c-0.07352,0.31145 0,0.64001 0,0.96001c0,0.16 0.03676,0.32426 0,0.48c-0.0822,0.3482 -0.16,0.48 -0.16,0.64c0,0.48 0,0.8 0,0.95999c0,0.16 -0.0778,0.29179 -0.16,0.64001c-0.07352,0.31145 0,0.64001 0,0.96001c0,0.32001 0,0.48 0,0.64001c0,0.16 0,0.32 0.16,0.64c0.16,0.32001 0.27425,0.83389 0.64,1.28001c0.14346,0.175 0.36686,0.36686 0.48,0.48c0.11314,0.11314 0.16,0.16 0.32,0.32c0.16,0.16 0.43095,0.39342 0.64,0.48c0.29564,0.12247 0.48,0.16 0.64,0.16c0.32,0 0.64413,0.05126 0.96,0c0.49943,-0.08105 0.66976,-0.11081 0.96,-0.32c0.18356,-0.13231 0.32,-0.16 0.48,-0.32001c0.16,-0.16 0.46682,-0.22189 0.64,-0.64001c0.06123,-0.14783 0.25878,-0.33218 0.32,-0.48c0.08659,-0.20905 0.39341,-0.27094 0.48,-0.48c0.06123,-0.14783 0.09877,-0.33218 0.16,-0.48c0.08659,-0.20905 0.09877,-0.33218 0.16,-0.48c0.08659,-0.20905 0.2378,-0.29179 0.32,-0.64c0.03676,-0.15572 0.16,-0.32001 0.16,-0.48c0,-0.32 0.16,-0.48 0.16,-0.64001c0,-0.16 0,-0.32 0,-0.48c0,-0.16 0.0778,-0.29179 0.16,-0.63998c0.03676,-0.15572 0.16,-0.48 0.16,-0.64001c0,-0.32 0.12324,-0.64428 0.16,-0.8c0.0822,-0.34821 0.2378,-0.45181 0.32,-0.8c0.03676,-0.15572 0.23341,-0.27094 0.32,-0.48c0.06123,-0.14782 0.29191,-0.17566 0.48,-0.48c0.08412,-0.13609 0.11095,-0.23341 0.32,-0.32c0.14782,-0.06123 0.48,0 0.64,0c0.16,0 0.39341,-0.04905 0.48,0.16c0.06123,0.14782 0.23341,0.43095 0.32,0.64c0.12246,0.29565 0.23341,0.59095 0.32,0.8c0.06123,0.14783 -0.12246,0.50436 0,0.8c0.08659,0.20905 0.16,0.32001 0.16,0.64001c0,0.16 0,0.48 0,0.64001c0,0.32 0.16,0.64001 0.16,0.96001c0,0.32001 0.09877,0.65218 0.16,0.8c0.08659,0.20905 0.20686,0.20686 0.32,0.32001c0.11313,0.11314 0.0778,0.29179 0.16,0.64c0.03676,0.15572 0.09877,0.33218 0.16,0.48c0.08659,0.20905 0.32,0.16 0.48,0.32001c0,0 0.04872,0.0751 0.64,0.32c0.20905,0.08659 0.29644,0.34769 0.48,0.48c0.29024,0.20919 0.75095,0.39341 0.96,0.48c0.14782,0.06123 0.32,0.16 0.48,0.16c0.32,0 0.64,0 0.8,0c0.31999,0 0.49217,-0.09875 0.64,-0.16c0.20905,-0.08659 0.31999,-0.32 0.48,-0.48c0.16,-0.16 0.20687,-0.36686 0.32001,-0.48c0.11313,-0.11314 0.09877,-0.17218 0.16,-0.32c0.08659,-0.20905 0.13437,-0.48206 0.16,-0.64001c0.08105,-0.49944 0.16,-0.8 0.16,-1.12c0,-0.32 0,-0.8 0,-0.96001c0,-0.32 0,-0.64 0,-0.8c0,-0.32 -0.0778,-0.45181 -0.16,-0.8c-0.07352,-0.31144 -0.07341,-0.59095 -0.16,-0.8c-0.06123,-0.14782 0,-0.32 0,-0.64c0,-0.32 0.18369,-0.67654 0,-1.12c-0.08659,-0.20905 -0.13437,-0.48206 -0.16,-0.64001c-0.08105,-0.49944 -0.03754,-0.66436 -0.16,-0.96001c-0.08659,-0.20905 -0.09877,-0.33218 -0.16,-0.48c-0.08659,-0.20905 -0.20686,-0.36686 -0.32,-0.48c-0.11314,-0.11314 0.06123,-0.33218 0,-0.48c-0.08659,-0.20905 -0.23341,-0.27094 -0.32,-0.48c-0.06123,-0.14782 -0.0778,-0.29181 -0.16,-0.64c-0.03677,-0.15572 -0.0778,-0.2918 -0.16,-0.64c-0.03677,-0.15572 -0.07341,-0.43095 -0.16,-0.64c-0.06123,-0.14783 0.06123,-0.33218 0,-0.48c-0.08659,-0.20906 -0.16,-0.32 -0.16,-0.48001c0,-0.16 -0.07341,-0.27095 -0.16,-0.48c-0.06123,-0.14782 0,-0.32 0,-0.32c0,-0.16 0,-0.32 0,-0.48c0,0 0,-0.16 0,-0.32001c0,0 0,-0.16 0,-0.32c0,-0.16 0.06123,-0.17218 0,-0.32c-0.08659,-0.20905 -0.16,-0.32 -0.16,-0.48c0,-0.16 0,-0.48 0,-0.8c0,-0.16 0,-0.32 0,-0.48c0,-0.32 0,-0.48 0.16,-0.48l0,-0.16l0,-0.16l0,0"/>
  <path fill="none" stroke="#ffffff" stroke-width="1.5" fill-opacity="null" id="svg_95" d="m39.73484,52.24328c0,0 0.16,0 0.32,0c0.48,0 1.12661,0.13556 1.76,0.32c0.48579,0.14146 0.89504,0.40208 1.28,0.64c0.4304,0.266 0.80428,0.28324 0.96,0.32c0.3482,0.0822 0.49218,0.25877 0.64,0.32c0.20905,0.08659 0.48,0.32 0.64,0.32l0.16,0.32l0,0.16l0.16,0"/>
  <path d="m53.76665,36.22276c-0.14706,0 -0.15825,0.09078 -0.29412,0.14706c-0.19214,0.07959 -0.21453,0.39609 -0.29412,0.58823c-0.11255,0.27173 -0.21453,0.54315 -0.29412,0.73529c-0.05628,0.13586 -0.21453,0.24903 -0.29412,0.44118c-0.05628,0.13587 -0.10374,0.34503 -0.44118,0.58824c-0.26676,0.19227 -0.59977,0.26321 -1.02941,0.44118c-0.3038,0.12584 -0.58823,0.14706 -1.02941,0.29412c-0.44118,0.14706 -0.87703,0.1641 -1.32353,0.29412c-0.58216,0.16953 -1.02941,0.14706 -1.61765,0.14706c-0.58823,0 -1.02941,0 -1.47059,0c-0.29412,0 -0.73529,0 -1.02941,0c-0.44117,0 -0.58823,0 -1.02941,0c-0.44118,0 -0.88843,-0.12459 -1.47059,-0.29412c-0.4465,-0.13002 -0.74683,-0.26322 -1.17647,-0.44118c-0.30381,-0.12584 -0.76265,-0.24891 -1.02941,-0.44118c-0.33743,-0.24321 -0.745,-0.42319 -1.02941,-0.58824c-0.4586,-0.26614 -0.76075,-0.56658 -0.88235,-0.73529c-0.19227,-0.26676 -0.31533,-0.72561 -0.44117,-1.02941c-0.17796,-0.42964 -0.51269,-0.85643 -0.58824,-1.17647c-0.03379,-0.14312 -0.14706,-0.29412 -0.29412,-0.58823c-0.14706,-0.29412 -0.29412,-0.58824 -0.29412,-0.88235c0,-0.44118 -0.14706,-0.73529 -0.14706,-1.17647c0,-0.44118 0,-0.88235 0,-1.32353c0,-0.44118 -0.14706,-0.88235 -0.14706,-1.32353c0,-0.44118 0,-0.73529 0,-0.88235c0,-0.44118 0,-0.73529 0,-1.17647c0,-0.44118 0,-0.88235 0,-1.17647c0,-0.44118 0.07151,-0.85643 0.14706,-1.17647c0.10136,-0.42937 0.11615,-0.89388 0.29412,-1.32353c0.12584,-0.3038 0.29412,-0.58823 0.44117,-0.88235c0.14706,-0.29412 0.29412,-0.73529 0.44118,-1.02941c0.14706,-0.29412 0.46663,-0.56658 0.58823,-0.73529c0.19227,-0.26676 0.20866,-0.50277 0.44118,-0.73529c0.23252,-0.23252 0.52853,-0.36956 0.88235,-0.58823c0.39559,-0.24449 0.73529,-0.29412 1.02941,-0.44118c0.29412,-0.14706 0.59204,-0.24701 0.88235,-0.29412c0.45903,-0.07449 0.86879,-0.22003 1.47058,-0.29412c0.43787,-0.0539 0.58823,0 1.02941,0c0.44118,0 1.02941,-0.14706 1.61765,-0.14706c0.44118,0 0.88235,0 1.17647,0c0.44117,0 0.88235,0.14706 1.17647,0.14706c0.29412,0 0.54315,0.21453 0.73529,0.29412c0.27173,0.11255 0.74683,0.11616 1.17647,0.29412c0.30381,0.12584 0.59217,0.40739 0.73529,0.44118c0.32004,0.07555 0.61062,0.18156 0.88235,0.29412c0.19214,0.07959 0.2682,0.21857 0.58823,0.29412c0.28625,0.06757 0.58823,0.14706 0.88235,0.29412c0.29412,0.14706 0.41952,0.31957 0.58823,0.44118c0.26677,0.19228 0.44118,0.44118 0.58824,0.58823c0.29412,0.29412 0.29412,0.44118 0.44117,0.73529c0.14706,0.29412 0.19669,0.63382 0.44118,1.02941c0.10934,0.17691 0.29412,0.44118 0.29412,0.73529c0,0.29412 0,0.58823 0,0.73529c0,0.44118 0.14706,0.44118 0.14706,0.73529c0,0.14706 0,0.44118 0,0.73529c0,0.44118 0,0.73529 0,1.02941c0,0.14706 0,0.58824 0,0.88235c0,0.14706 0.06747,0.24903 0.14706,0.44118c0.05628,0.13586 0,0.29412 0,0.44118l0,0.14706l0,0.14706" id="svg_4" fill-opacity="null" stroke-width="1.5" stroke="#ffffff" fill="none"/>
  <path d="m38.17842,59.16391c0.14706,0 0.14706,0.14706 0.14706,0.14706c0,0.14706 0.06747,0.24903 0.14706,0.44117c0.05628,0.13586 0,0.29412 0,0.44118c0,0.14706 0,0.44118 0,0.58823l0,0.14706l0,0.14706l0,0.14706" id="svg_16" fill-opacity="null" stroke-width="1.5" stroke="#ffffff" fill="none"/>
  <path fill="none" stroke="#ffffff" stroke-width="1.5" fill-opacity="null" id="svg_12" d="m54.07443,59.33035c0,0 0,0 0,-0.73976c0,-0.24659 0,-0.73976 0,-0.98635c0,-0.24659 0,-0.49318 0.21053,-0.98635c0.21053,-0.49318 0.12996,-1.00512 0.21053,-1.23293c0.11393,-0.32218 0.30712,-0.66417 0.42105,-0.98635c0.08057,-0.22781 0.21053,-0.98635 0.21053,-1.23293c0,-0.24659 0.21053,-0.49318 0.21053,-0.73976l0,-0.24659"/>
  <path fill="none" stroke="#ffffff" stroke-width="1.5" fill-opacity="null" id="svg_14" d="m51.75864,40.38986c0,0 0.3129,0.17342 0.42105,0.63158c0.04837,0.2049 0.22655,0.34048 0.42105,0.42105c0.27506,0.11394 0.42105,0.21053 0.42105,0.21053c0.63158,0 1.71237,0.24184 2.73684,0c0.45816,-0.10815 0.88126,-0.56685 1.26316,-0.8421c0.48306,-0.34817 0.88565,-0.38161 1.26316,-0.84211c0.48124,-0.58702 0.78192,-1.30772 1.26316,-1.89474c0.37752,-0.46049 1.02687,-1.27705 1.26316,-1.68421c0.38099,-0.65652 0.75663,-0.95011 1.26316,-1.26316c0.56631,-0.35 1.24374,-0.73605 2.10526,-0.84211c0.20895,-0.02572 0.43232,-0.09674 0.84211,0c0.45816,0.10815 0.84212,0.42105 1.05264,0.84211c0.21053,0.42105 0.42105,0.84211 0.42105,1.89474c0,1.05263 -0.10378,1.52295 -0.63158,2.52631c-0.35339,0.67179 -0.41022,0.90499 -0.63158,1.26316c-0.24749,0.40044 -0.92043,0.50212 -1.68421,1.05263c-0.48306,0.34817 -0.88126,0.77738 -1.26316,1.05263c-0.48306,0.34817 -1.09718,0.99244 -1.6842,1.47368c-0.46049,0.37751 -0.84211,0.63158 -1.05264,1.05263c-0.21053,0.42105 -0.63158,0.84211 -0.84211,1.05263c-0.42105,0.42105 -0.63158,0.84211 -0.84209,1.05263c-0.42105,0.42105 -0.72817,0.77757 -0.84212,1.05263c-0.08057,0.1945 -0.23113,0.80515 -0.63158,1.05263c-0.17908,0.11068 -0.30711,0.35651 -0.42105,0.63158c-0.08057,0.1945 0,0.63158 -0.21053,1.05263c-0.21053,0.42105 -0.52494,0.60601 -0.63158,1.26316c-0.06744,0.41562 0,1.05263 -0.21053,1.68421l0,0.42105l0,0.42105l-0.21053,0.42105"/>
  <path fill="none" stroke="#ffffff" stroke-width="1.5" fill-opacity="null" id="svg_23" d="m55.12706,29.23196c0,0 0,0.21053 0,0.42105c0,0.21053 0,0.63158 0,0.84211c0,0.42105 0,0.63158 0,0.84211c0,0.42105 0,0.63158 0,0.84211c0,0.21053 -0.10237,0.38395 -0.21053,0.84211c-0.04837,0.2049 -0.09659,0.35651 -0.21053,0.63158c-0.16113,0.389 -0.30711,0.77757 -0.42105,1.05263c-0.16113,0.389 -0.12996,0.64761 -0.21053,0.84211c-0.11393,0.27507 -0.26453,0.16779 -0.42105,0.42105c-0.35,0.56631 -0.35632,1.09179 -0.63158,1.47368c-0.34817,0.48306 -0.63158,0.63158 -0.63158,0.63158l-0.21053,0.21053"/>
  <path fill="none" stroke="#ffffff" stroke-width="1.5" fill-opacity="null" id="svg_25" d="m64.39022,33.44249c-0.21053,0 -0.06166,-0.27219 -0.21053,-0.42105c-0.14886,-0.14886 -0.21052,-0.21053 -0.42104,-0.42105c-0.21053,-0.21053 -0.27219,-0.27219 -0.42104,-0.42105c-0.14886,-0.14886 0,-0.42105 -0.21053,-0.63158c-0.21053,-0.21053 -0.21053,-0.42105 -0.21053,-0.42105c0,-0.21053 0,-0.42105 0,-0.42105c0,-0.42105 0,-0.63158 0,-0.8421c0,-0.21053 0.21053,-0.42105 0.42105,-0.63158c0.21053,-0.21053 0.35651,-0.30711 0.63158,-0.42105c0.1945,-0.08057 0.42105,0 0.84211,-0.42105c0.42105,-0.42105 0.88126,-0.56685 1.26316,-0.84211c0.24152,-0.17408 0.35651,-0.51764 0.63158,-0.63158c0.1945,-0.08057 0.35651,-0.09659 0.63158,-0.21053c0.1945,-0.08057 0.24258,-0.0494 0.63158,-0.21053c0.27507,-0.11394 0.59463,-0.02061 0.84212,-0.42105c0.11068,-0.17908 0.14597,-0.30712 0.42104,-0.42105c0.1945,-0.08057 0.42104,-0.21053 0.63158,-0.42105c0.21053,-0.21053 0.42105,-0.21053 0.63158,-0.42105c0.21053,-0.21053 0.39005,-0.24697 0.63158,-0.42105c0.38189,-0.27525 0.64761,-0.12996 0.84209,-0.21053c0.27507,-0.11394 0.35651,-0.51764 0.63158,-0.63158c0.1945,-0.08057 0.21053,0 0.21053,0c0.21053,0 0.30711,-0.06454 0.42104,0.21053c0.08057,0.1945 0.14581,0.46021 0.42105,0.84211c0.1741,0.24153 0.30711,0.56704 0.42104,0.8421c0.08057,0.1945 0.12997,0.43708 0.21053,0.63158c0.11395,0.27507 0.21053,0.42105 0.21053,0.42105c0.21053,0.42105 0.12997,0.64761 0.21053,0.84211c0.11395,0.27507 0.27219,0.27219 0.42104,0.42105c0.14886,0.14886 0.30711,0.35651 0.42105,0.63158c0.08057,0.1945 0.06165,0.27219 0.21053,0.42105c0.14886,0.14886 0.27219,0.27219 0.42104,0.42105c0.14886,0.14886 0.21053,0.21053 0.21053,0.42105c0,0.21053 0.12996,0.22655 0.21053,0.42105c0.11394,0.27507 0.21053,0.42105 0.21053,0.63158c0,0.21053 0,0.42105 0,0.42105c0,0 0.14886,0.06166 0,0.21053c-0.14886,0.14887 -0.34048,0.01603 -0.42106,0.21053c-0.11393,0.27507 -0.43707,0.12997 -0.63158,0.21053c-0.27506,0.11393 -0.42668,0.37268 -0.63158,0.42105c-0.45816,0.10815 -0.63158,0.42105 -0.84211,0.63158c-0.42105,0.42105 -0.87415,0.47045 -1.26315,0.63158c-0.55013,0.22787 -0.76154,0.43708 -0.84211,0.63158c-0.11395,0.27507 -0.35651,0.30712 -0.63158,0.42105c-0.1945,0.08056 -0.39005,0.24697 -0.63158,0.42105c-0.3819,0.27525 -0.63158,0.21053 -0.84212,0.42105c-0.21053,0.21053 -0.14597,0.30712 -0.42104,0.42105c-0.1945,0.08057 -0.21053,0 -0.42105,0c0,0 -0.01603,-0.08057 -0.21053,0c-0.27505,0.11394 -0.42104,0.21053 -0.42104,0.21053c0,0.21053 -0.21053,0.21053 -0.42104,0.21053c0,0 -0.21053,0 -0.42105,0.21053c0,0 -0.21053,0.21053 -0.21053,0.21053l0,0l-0.21053,0l-0.21053,0"/>
  <path fill="none" stroke="#ffffff" stroke-width="1.5" fill-opacity="null" id="svg_26" d="m63.33758,30.49512c0.21053,0 0.42105,0 0.63158,0c0.21053,0 0.42105,0 0.63158,0c0.21053,0 0.42105,0 0.42105,0c0.21053,0 0.21053,0 0.42105,0c0.21053,0 0.42105,0 0.63158,0c0.21053,0 0.42105,0 0.63158,0c0.21053,0 0.42105,0 0.63158,0c0.21053,0 0.21053,0 0.42105,0c0.21053,0 0.35651,-0.09659 0.63158,-0.21053c0.1945,-0.08057 0.42104,0 0.63158,0c0.21053,0 0.21053,0 0.42105,0c0,0 0.21053,0 0.42105,0c0,0 0,0 0,0c0,-0.21053 0.21053,-0.21053 0.21053,-0.42105c0,0 0.03645,-0.17952 0.21053,-0.42105c0.27525,-0.3819 0.38733,-0.6343 0.42105,-0.84211c0.10664,-0.65715 0.12997,-1.06866 0.21053,-1.26316c0.11395,-0.27507 0.30711,-0.35651 0.42104,-0.63158c0.08057,-0.1945 0.3129,-0.17342 0.42105,-0.63158c0.04837,-0.2049 0.42105,-0.21053 0.42105,-0.42105c0,0 0,-0.21053 0,-0.21053l0.21053,-0.21053l0,-0.42105l0,0"/>
  <path fill="none" stroke="#ffff00" stroke-width="1.5" stroke-opacity="null" fill-opacity="null" id="svg_60" d="m76.77993,21.91638c0,-0.12658 0.25317,-0.50633 0.50632,-0.75949c0.25317,-0.25316 0.40654,-0.34356 0.75949,-0.63291c0.27689,-0.22699 0.37975,-0.37975 0.37975,-0.50633l0.12658,0l0.12658,-0.12658l0,-0.12658"/>
  <path fill="none" stroke="#ffff00" stroke-width="1.5" stroke-opacity="null" fill-opacity="null" id="svg_63" d="m78.2989,25.33408c0,-0.12658 0.13148,-0.19234 0.50632,-0.25316c0.39512,-0.06412 0.99697,-0.42318 1.64557,-0.63291c0.49659,-0.16058 0.75949,-0.25316 0.88607,-0.25316l0.12658,0l0.12659,0l0.12659,0"/>
  <path fill="none" stroke="#ffff00" stroke-width="1.5" stroke-opacity="null" fill-opacity="null" id="svg_65" d="m79.43815,29.00495c0.12658,-0.12658 0.62505,-0.18966 1.3924,-0.25316c0.88305,-0.07309 1.13923,0 1.51897,0l0.25317,0l0.12658,0l0.12659,0"/>
  <path fill="none" stroke="#ffff00" stroke-width="1.5" stroke-opacity="null" fill-opacity="null" id="svg_67" d="m79.56473,32.67582c0.12659,0 0.25697,-0.06186 0.75949,0c0.51801,0.06377 1.02258,0.22656 1.3924,0.37975c0.52299,0.21663 0.88607,0.37974 1.26582,0.37974l0.12659,0.12658l0.12659,0"/>
  <path fill="none" stroke="#ffff00" stroke-width="1.5" stroke-opacity="null" fill-opacity="null" id="svg_68" d="m77.53942,35.84037c0.25317,0.12658 0.98765,0.43454 1.77215,0.75949c0.73963,0.30637 0.93909,0.30619 1.13924,0.50633c0.20013,0.20014 0.34093,0.31124 0.50632,0.37975c0.11694,0.04844 0.25317,0.12658 0.37975,0.12658c0.25317,0 0.37975,0.12658 0.37975,0.12658l0.12658,0l0,0.12658"/>
  <path fill="none" stroke="#ffff00" stroke-width="1.5" stroke-opacity="null" fill-opacity="null" id="svg_71" d="m75.6407,39.00491c0.25316,0 0.35603,0.15276 0.6329,0.37975c0.35295,0.28935 0.63291,0.37975 0.88607,0.63291c0.25317,0.25316 0.39902,0.28286 0.63291,0.37974c0.16539,0.06851 0.21436,0.31124 0.37975,0.37975c0.11694,0.04844 0.21436,0.18466 0.37975,0.25317c0.11694,0.04844 0.37975,0.12658 0.37975,0.12658l0,0.12658l0,0.12658"/>
  <path fill="none" stroke="#ffff00" stroke-width="1.5" stroke-opacity="null" fill-opacity="null" id="svg_72" d="m72.98247,40.52389c0.12659,0.25316 0.26971,0.52262 0.37975,0.88607c0.13226,0.43681 0.61742,0.76784 0.75949,1.01265c0.22906,0.39474 0.26555,0.61068 0.50632,0.75949c0.10767,0.06655 0.18465,0.21436 0.25317,0.37975c0.04844,0.11695 0,0.37975 0.12658,0.37975l0,0.12658"/>
  <path fill="none" stroke="#ffff00" stroke-width="1.5" stroke-opacity="null" fill-opacity="null" id="svg_74" d="m68.67871,41.66313c0,0.12658 -0.0464,0.25601 0,0.63291c0.06377,0.518 0.0252,0.89424 0.12658,1.51898c0.06412,0.39512 0.25316,0.63291 0.25316,0.75949c0,0.25317 0.12658,0.37975 0.12658,0.50633l0,0.12658"/>
  <path fill="none" stroke="#ffff00" stroke-width="1.5" stroke-opacity="null" fill-opacity="null" id="svg_77" d="m69.56478,20.90372c0,0 0.02908,-0.00339 0,-0.12658c-0.06503,-0.27547 -0.18904,-0.49096 -0.25316,-0.88607c-0.06083,-0.37484 -0.01025,-1.0262 -0.12658,-1.51898c-0.06503,-0.27547 -0.12659,-0.63291 -0.12659,-0.75949l0,-0.12658"/>
  <path fill="none" stroke="#ffff00" stroke-width="1.5" stroke-opacity="null" fill-opacity="null" id="svg_78" d="m66.52682,22.54929c0,-0.12658 -0.03708,-0.16365 -0.12658,-0.25316c-0.17901,-0.17901 -0.16311,-0.48965 -0.37975,-1.01265c-0.15318,-0.36982 -0.44257,-0.74782 -0.50632,-1.26582c-0.03093,-0.25127 -0.12658,-0.50633 -0.12658,-0.50633c-0.12658,-0.12658 -0.12658,-0.37975 -0.25316,-0.50633l0,-0.12658"/>
  <path fill="none" stroke="#ffff00" stroke-width="1.5" stroke-opacity="null" fill-opacity="null" id="svg_82" d="m63.10911,23.68852c-0.12658,0 -0.25317,0 -0.37975,-0.12658c-0.25317,-0.25317 -0.37577,-0.68507 -0.63291,-1.13924c-0.1764,-0.31155 -0.63291,-0.75949 -0.75949,-1.01265l-0.12658,-0.12658l-0.12658,0"/>
  <path fill="none" stroke="#ffff00" stroke-width="1.5" stroke-opacity="null" fill-opacity="null" id="svg_83" d="m60.83064,26.09358c-0.12658,0 -0.25317,-0.12658 -0.37975,-0.25317c-0.25316,-0.25316 -0.77188,-0.61068 -1.01265,-0.75949c-0.53838,-0.33274 -1.07838,-0.70357 -1.3924,-1.13924c-0.1655,-0.22962 -0.12658,-0.25316 -0.25316,-0.25316l0,-0.12658l0,-0.12658"/>
  <path d="m72.84314,20.11438c0,0 0.09534,-0.16152 0.19608,-0.58824c0.04505,-0.19083 0.29283,-0.7605 0.39216,-1.37255c0.06282,-0.38709 0,-0.78431 0,-0.98039l0,-0.19608l0.19608,0" id="svg_2" fill-opacity="null" stroke-width="null" stroke="#ffff00" fill="none"/>
 </g>
</svg>
