<svg width="100" height="100" xmlns="http://www.w3.org/2000/svg">
 <!-- Created with Method Draw - http://github.com/duopixel/Method-Draw/ -->

 <g>
  <title>background</title>
  <rect x="-1" y="-1" width="102" height="102" id="canvas_background" fill="none"/>
  <g id="canvasGrid" display="none">
   <rect id="svg_1" width="100%" height="100%" x="0" y="0" stroke-width="0" fill="url(#gridpattern)"/>
  </g>
 </g>
 <g>
  <title>Layer 1</title>
  <path fill="none" stroke="#000000" stroke-width="1.5" stroke-opacity="null" fill-opacity="null" id="svg_53" d="m59.32675,11.19957c-0.30303,-0.15152 -0.90909,-0.45455 -1.66667,-0.75758c-0.75758,-0.30303 -1.6586,-0.53011 -2.72728,-0.60606c-0.60454,-0.04296 -1.21212,0.15152 -2.12122,0.45455c-0.45455,0.15152 -1.08061,0.26596 -1.66667,0.60606c-0.945,0.5484 -1.53215,0.89672 -1.9697,1.51515c-0.31553,0.44596 -0.8013,1.04065 -1.06061,1.66667c-0.36671,0.88532 -0.30303,1.21212 -0.45455,1.81819c-0.15151,0.60606 -0.31749,1.20869 -0.45454,1.81818c-0.16949,0.75376 -0.09682,1.5367 0.15152,2.42425c0.21986,0.78576 0.72302,1.98781 1.21212,2.87879c0.42514,0.77446 0.90909,1.36364 1.36364,1.9697c0.45454,0.60606 0.89972,1.07252 1.66667,1.66667c0.59889,0.46396 1.37293,1.03404 2.27273,1.36364c0.76615,0.28065 1.5198,0.59277 1.9697,0.75758c0.76615,0.28065 1.66667,0.30303 2.72728,0.30303c1.0606,0 1.845,-0.0523 2.57576,-0.30303c0.64092,-0.2199 1.23626,-0.54707 1.66667,-0.75758c0.49075,-0.24002 0.87072,-0.66233 1.51515,-1.06061c0.28819,-0.17812 0.75758,-0.75758 0.90909,-1.06061c0.45454,-0.90909 0.49828,-1.34368 0.75758,-1.9697c0.18335,-0.44266 0.1515,-1.21212 0.1515,-1.81818c0,-0.75758 0.07404,-1.36818 0,-1.9697c-0.07632,-0.62003 -0.1274,-0.9351 -0.30302,-1.51515c-0.15831,-0.52286 -0.51756,-0.72138 -0.75758,-1.21212c-0.21051,-0.43041 -0.29214,-1.00167 -0.60606,-1.36364c-0.22198,-0.25595 -0.48338,-0.58811 -0.75758,-1.06061c-0.17004,-0.29303 -0.40796,-0.78576 -0.60606,-1.06061c-0.25058,-0.34766 -0.62173,-0.59187 -0.75758,-0.75758c-0.34634,-0.42248 -0.39303,-0.8353 -0.75758,-1.06061c-0.40757,-0.25189 -0.90909,-0.45455 -1.36364,-0.75758c-0.45455,-0.30303 -1.06061,-0.60606 -1.51516,-0.75758l-0.30303,-0.15152l-0.15152,0"/>
  <path fill="none" stroke="#000000" stroke-width="1.5" stroke-opacity="null" fill-opacity="null" id="svg_86" d="m54.15159,28.91415c0.16,0 0.16,0 0.16,0.16c0,0.16 0,0.16 0,0.32c0,0.32 0.0778,0.4518 0.16,0.8c0.07352,0.31144 0,0.64 0,0.8c0,0.16 0.11314,0.36686 0,0.48c-0.11314,0.11314 -0.29644,0.02769 -0.48,0.16c-0.29024,0.20919 -0.25504,0.24208 -0.64,0.48c-0.4304,0.266 -0.59095,0.23341 -0.8,0.32c-0.29564,0.12246 -0.64,0.16 -0.8,0.16c-0.32,0 -0.62057,0.07896 -1.12,0.16c-0.4738,0.07689 -0.96,0 -1.12,0c-0.32,0 -0.48,0 -0.8,0c-0.16,0 -0.32856,-0.07352 -0.64,0c-0.3482,0.0822 -0.43095,0.39341 -0.64,0.48c-0.14782,0.06123 -0.32,0 -0.48,0.16c-0.16,0.16 -0.32,0.32 -0.48,0.48c-0.16,0.16 -0.16,0.32 -0.32,0.32c-0.16,0 -0.16,0.16 -0.16,0.16c0,0.16 -0.04686,0.20686 -0.16,0.32c-0.11314,0.11314 -0.16,0.16 -0.16,0.16c0,0.16 -0.16,0.16 -0.16,0.16c0,0.16 -0.16,0.16 -0.16,0.32c0,0.16 -0.16,0.16 -0.16,0.16c0,0.16 -0.07341,0.43095 -0.16,0.64c-0.06123,0.14782 -0.16,0.32 -0.16,0.48c0,0.32 -0.07896,0.46057 -0.16,0.96c-0.05126,0.31587 0,0.48 0,0.64c0,0.16 0,0.32 0,0.48c0,0.32 0,0.48 0,0.64c0,0.16 0,0.32 0,0.64c0,0.16 0.16,0.32 0.16,0.48c0,0.16 0.07341,0.27095 0.16,0.48c0.06123,0.14782 -0.06123,0.33218 0,0.48c0.08659,0.20905 0.09877,0.33218 0.16,0.48c0.08659,0.20905 0.16,0.16 0.16,0.32c0,0.16 0.07341,0.11095 0.16,0.32c0.06123,0.14782 0.16,0.16 0.16,0.32c0,0.16 -0.03676,0.16428 0,0.32c0.0822,0.3482 0.3978,0.6118 0.48,0.96c0.03676,0.15572 0.09877,0.33218 0.16,0.48c0.08659,0.20905 0.32,0.32 0.48,0.48c0.16,0.16 0.3477,0.45644 0.48,0.64c0.20919,0.29024 0.32,0.48 0.48,0.64c0.16,0.16 0.33218,0.25877 0.48,0.32c0.20905,0.08659 0.65056,0.46043 0.96,0.64c0.49896,0.28955 0.7718,0.5578 1.12,0.64c0.15572,0.03676 0.17218,0.09877 0.32,0.16c0.20905,0.08659 0.27095,0.23341 0.48,0.32c0.14782,0.06123 0.36686,-0.11314 0.48,0c0.11314,0.11314 0.16,0.16 0.48,0.32c0,0 0.32,0.16 0.48,0.16c0.16,0 0.33218,0.09877 0.48,0.16c0.20905,0.08659 0.43095,0.23341 0.64,0.32c0.29564,0.12246 0.64,0 0.8,0c0.32,0 0.64,0 0.96,0c0.48,0 0.64,0 0.96,0c0.16,0 0.33218,0.06123 0.48,0c0.20905,-0.08659 0.2918,-0.2378 0.64,-0.32c0.31144,-0.07352 0.57877,-0.17218 0.64,-0.32c0.08659,-0.20905 0.32,-0.32 0.48,-0.48c0.16,-0.16 0.45191,-0.01566 0.64,-0.32c0.08412,-0.1361 0.16,-0.32 0.16,-0.48c0,-0.16 0.16,-0.32 0.16,-0.48c0,-0.16 0,-0.32 0,-0.48c0,-0.16 -0.16,-0.48 -0.32,-0.8c-0.16,-0.32 -0.39341,-0.59095 -0.48,-0.8c-0.06123,-0.14782 -0.16,-0.32 -0.32,-0.48c-0.16,-0.16 -0.11095,-0.39341 -0.32,-0.48c-0.14782,-0.06123 -0.27095,-0.23341 -0.48,-0.32c-0.14782,-0.06123 -0.23341,-0.11095 -0.32,-0.32c-0.06123,-0.14782 -0.32,-0.16 -0.32,-0.16c-0.16,0 -0.16,-0.16 -0.32,-0.16c-0.16,0 -0.32,-0.16 -0.32,-0.32l-0.16,0l-0.16,0"/>
  <path fill="none" stroke="#000000" stroke-width="1.5" stroke-opacity="null" fill-opacity="null" id="svg_87" d="m63.9116,28.11415c0,0 0.07341,0.11095 0.16,0.32c0.06123,0.14782 0,0.32 0,0.48c0,0.16 0,0.32 0.16,0.48l0,0.16l0,0.16l0,0.16"/>
  <path fill="none" stroke="#000000" stroke-width="1.5" stroke-opacity="null" fill-opacity="null" id="svg_91" d="m50.63159,49.39416c0,0.16 0.16,0.16 0.16,0.32c0,0.16 -0.05865,0.6436 0,1.12c0.0806,0.65475 0.16,1.44 0.16,1.92c0,0.48 0,0.96 0,1.44c0,0.48 -0.07895,0.78057 -0.16,1.28c-0.02563,0.15793 0,0.96 0,1.28001c0,0.16 -0.0778,0.4518 -0.16,0.8c-0.11028,0.46716 0,0.8 0,1.28c0,0.16 -0.0778,0.45181 -0.16,0.8c-0.07352,0.31145 0,0.64 0,0.96001c0,0.16 0.03676,0.32428 0,0.48c-0.0822,0.34821 -0.16,0.48 -0.16,0.64c0,0.48 0,0.8 0,0.96c0,0.16 -0.0778,0.2918 -0.16,0.64001c-0.07352,0.31144 0,0.64 0,0.96c0,0.32 0,0.48 0,0.64c0,0.16 0,0.32 0.16,0.64c0.16,0.32001 0.27425,0.83388 0.64,1.28001c0.14346,0.175 0.36686,0.36686 0.48,0.48c0.11314,0.11314 0.16,0.16 0.32,0.32c0.16,0.16 0.43095,0.39342 0.64,0.48c0.29564,0.12247 0.48,0.16 0.64,0.16c0.32,0 0.64413,0.05126 0.96,0c0.49943,-0.08105 0.66976,-0.11081 0.96,-0.32c0.18356,-0.13231 0.32,-0.16 0.48,-0.32001c0.16,-0.16 0.46682,-0.2219 0.64,-0.64001c0.06123,-0.14783 0.25878,-0.33218 0.32,-0.48c0.08659,-0.20905 0.39341,-0.27095 0.48,-0.48c0.06123,-0.14782 0.09877,-0.33218 0.16,-0.48c0.08659,-0.20905 0.09877,-0.33218 0.16,-0.48c0.08659,-0.20905 0.2378,-0.2918 0.32,-0.64c0.03676,-0.15572 0.16,-0.32001 0.16,-0.48c0,-0.32 0.16,-0.48 0.16,-0.64c0,-0.16 0,-0.32001 0,-0.48c0,-0.16 0.0778,-0.29179 0.16,-0.64c0.03676,-0.15572 0.16,-0.48 0.16,-0.64c0,-0.32 0.12324,-0.64428 0.16,-0.8c0.0822,-0.34819 0.2378,-0.4518 0.32,-0.8c0.03676,-0.15572 0.23341,-0.27095 0.32,-0.48c0.06123,-0.14781 0.29191,-0.17566 0.48,-0.48c0.08412,-0.13609 0.11095,-0.23341 0.32,-0.32c0.14782,-0.06123 0.48,0 0.64,0c0.16,0 0.39341,-0.04905 0.48,0.16c0.06123,0.14783 0.23341,0.43095 0.32,0.64c0.12246,0.29564 0.23341,0.59096 0.32,0.8c0.06123,0.14782 -0.12246,0.50436 0,0.8c0.08659,0.20905 0.16,0.31999 0.16,0.64c0,0.16 0,0.48 0,0.64c0,0.32 0.16,0.64001 0.16,0.96001c0,0.32 0.09877,0.65218 0.16,0.8c0.08659,0.20905 0.20686,0.20686 0.32,0.32c0.11313,0.11314 0.0778,0.2918 0.16,0.64001c0.03676,0.15572 0.09877,0.33218 0.16,0.48c0.08659,0.20905 0.32,0.16 0.48,0.32001c0,0 0.04872,0.0751 0.64,0.32c0.20905,0.08659 0.29646,0.34769 0.48,0.48c0.29025,0.20919 0.75095,0.39341 0.96,0.48c0.14782,0.06123 0.32,0.16 0.48,0.16c0.32001,0 0.64001,0 0.8,0c0.31999,0 0.49217,-0.09876 0.64,-0.16c0.20905,-0.08659 0.31999,-0.32 0.48,-0.48c0.16,-0.16 0.20687,-0.36686 0.32001,-0.48c0.11313,-0.11314 0.09877,-0.17217 0.16,-0.32c0.08659,-0.20905 0.13437,-0.48206 0.16,-0.64001c0.08105,-0.49943 0.16,-0.8 0.16,-1.12c0,-0.32 0,-0.8 0,-0.96001c0,-0.32 0,-0.64 0,-0.8c0,-0.32001 -0.0778,-0.45181 -0.16,-0.8c-0.07352,-0.31144 -0.07341,-0.59095 -0.16,-0.8c-0.06123,-0.14781 0,-0.31999 0,-0.64c0,-0.31999 0.18369,-0.67654 0,-1.12c-0.08659,-0.20905 -0.13437,-0.48206 -0.16,-0.64c-0.08105,-0.49944 -0.03754,-0.66436 -0.16,-0.96001c-0.08659,-0.20905 -0.09877,-0.33218 -0.16,-0.48c-0.08659,-0.20905 -0.20686,-0.36686 -0.32,-0.48c-0.11314,-0.11314 0.06123,-0.33218 0,-0.48c-0.08659,-0.20905 -0.23341,-0.27095 -0.32,-0.48c-0.06123,-0.14782 -0.0778,-0.29181 -0.16,-0.64c-0.03677,-0.15572 -0.0778,-0.2918 -0.16,-0.64c-0.03677,-0.15572 -0.07341,-0.43095 -0.16,-0.64c-0.06123,-0.14782 0.06123,-0.33218 0,-0.48c-0.08659,-0.20905 -0.16,-0.32 -0.16,-0.48c0,-0.16 -0.07341,-0.27095 -0.16,-0.48c-0.06123,-0.14782 0,-0.32 0,-0.32c0,-0.16 0,-0.32 0,-0.48c0,0 0,-0.16 0,-0.32c0,0 0,-0.16 0,-0.32c0,-0.16 0.06123,-0.17218 0,-0.32c-0.08659,-0.20905 -0.16,-0.32 -0.16,-0.48c0,-0.16 0,-0.48 0,-0.8c0,-0.16 0,-0.32 0,-0.48c0,-0.32 0,-0.48 0.16,-0.48l0,-0.16l0,-0.16l0,0"/>
  <path fill="none" stroke="#000000" stroke-width="1.5" stroke-opacity="null" fill-opacity="null" id="svg_95" d="m51.91159,41.23415c0,0 0.16,0 0.32,0c0.48,0 1.12661,0.13556 1.76,0.32c0.48579,0.14146 0.89504,0.40208 1.28,0.64c0.4304,0.266 0.80428,0.28324 0.96,0.32c0.3482,0.0822 0.49218,0.25877 0.64,0.32c0.20905,0.08659 0.48,0.32 0.64,0.32l0.16,0.32l0,0.16l0.16,0"/>
  <path fill="none" stroke="#000000" stroke-width="1.5" stroke-opacity="null" fill-opacity="null" id="svg_99" d="m65.3516,38.51415c0.16,0 0.16428,-0.03676 0.32,0c0.3482,0.0822 0.4518,0.5578 0.8,0.64c0.31142,0.07352 0.4518,0.2378 0.8,0.32c0.15572,0.03676 0.16,0.16 0.32,0.16c0.32001,0 0.48428,0.12324 0.64,0.16c0.34821,0.0822 0.59097,0.23341 0.8,0.32c0.29564,0.12246 0.8,0 1.12,0c0.32,0 0.64,0.16 0.96,0.16c0.32,0 0.48,0 0.8,0c0.16,0 0.48,0 0.8,0c0.31999,0 0.8,-0.16 1.12,-0.16c0.32001,0 0.59097,-0.07341 0.8,-0.16c0.14783,-0.06123 0.27095,-0.07341 0.48,-0.16c0.29564,-0.12246 0.50977,-0.11081 0.8,-0.32c0.18356,-0.13231 0.11081,-0.34976 0.32001,-0.64c0.13229,-0.18356 0.2708,-0.50976 0.48,-0.8c0.13231,-0.18356 0.25876,-0.49218 0.31999,-0.64c0.08659,-0.20905 0.12325,-0.32428 0.16,-0.48c0.08221,-0.3482 0.23782,-0.4518 0.32001,-0.8c0.03676,-0.15572 0.07341,-0.27095 0.15999,-0.48c0.12247,-0.29564 0,-0.64 0,-0.96c0,-0.48 0.0778,-0.7718 0.16,-1.12c0.07353,-0.31144 0,-0.8 0,-1.12c0,-0.48 0,-0.64 0,-0.8c0,-0.32 -0.07341,-0.59095 -0.16,-0.8c-0.06123,-0.14782 0.03676,-0.48428 0,-0.64c-0.0822,-0.34821 -0.31999,-0.64 -0.31999,-0.96c0,-0.16 -0.07341,-0.27095 -0.16,-0.48c-0.12245,-0.29564 -0.07341,-0.43095 -0.16,-0.64c-0.06123,-0.14782 0.06123,-0.33218 0,-0.48c-0.08658,-0.20905 -0.15999,-0.32 -0.15999,-0.48c0,-0.16 -0.16,-0.32 -0.16,-0.48c0,-0.16 -0.16,-0.16 -0.16,-0.16c0,-0.16 0.11314,-0.36687 0,-0.48c-0.11313,-0.11314 -0.16,0 -0.16,-0.16c0,-0.16 -0.15999,-0.32 -0.15999,-0.32c0,-0.16 -0.16,-0.16 -0.16,-0.32c0,-0.16 0,-0.16 0,-0.32c0,-0.16 -0.16,-0.32 -0.16,-0.32c-0.16,-0.16 -0.23341,-0.27095 -0.31999,-0.48c-0.06123,-0.14782 -0.07341,-0.11095 -0.16,-0.32c-0.06123,-0.14782 -0.16,-0.16 -0.16,-0.16c0,0 0.04904,-0.23341 -0.16,-0.32c-0.14783,-0.06123 -0.04686,-0.20686 -0.16,-0.32c-0.11313,-0.11313 -0.2334,0.04905 -0.31998,-0.16c-0.06123,-0.14782 0.06627,-0.25373 -0.16,-0.48c-0.11313,-0.11314 -0.32,0 -0.32,0c-0.16,0 -0.20686,-0.04686 -0.32,-0.16c-0.11314,-0.11314 -0.16,-0.16 -0.32,-0.16c0,0 -0.23341,-0.11095 -0.32,-0.32c-0.06123,-0.14782 -0.32,-0.16 -0.32,-0.16c-0.16,0 -0.16,-0.16 -0.32,-0.16c-0.16,0 -0.16,-0.16 -0.32,-0.16l-0.16,0l-0.16,0"/>
  <path fill="none" stroke="#000000" stroke-width="1.5" stroke-opacity="null" fill-opacity="null" id="svg_101" d="m66.1516,48.11416c0,-0.48 -0.10252,-0.96826 0,-1.6c0.08105,-0.49944 0.24312,-1.2862 0.32001,-1.76c0.08104,-0.49943 0.24648,-0.96856 0.31999,-1.28c0.0822,-0.3482 0.19754,-0.50436 0.32001,-0.8c0.08659,-0.20905 0.19754,-0.50436 0.31999,-0.8c0.08659,-0.20905 0.16,-0.48 0.32001,-0.64c0.16,-0.16 0.23341,-0.27095 0.32,-0.48c0.06123,-0.14782 0,-0.32 0,-0.48l0.16,0l0,0"/>
  <path fill="none" stroke="#000000" stroke-width="1.5" stroke-opacity="null" fill-opacity="null" id="svg_108" d="m63.84543,29.6805c0.15038,0 0.4791,0.10414 0.75188,0.30075c0.17252,0.12435 0.47403,0.18566 0.75188,0.30075c0.19648,0.08138 0.25465,0.21937 0.45113,0.30075c0.27785,0.11509 0.47401,-0.11509 0.75188,0c0.19648,0.08138 0.45113,0.15038 0.75188,0.15038c0.15038,0 0.42462,-0.07312 0.75188,-0.15038c0.14635,-0.03455 0.47401,-0.03528 0.75188,-0.15038c0.19647,-0.08138 0.31219,-0.24321 0.45113,-0.30075c0.19646,-0.08138 0.21937,-0.25465 0.30075,-0.45113c0.05754,-0.13893 0.08128,-0.45917 0.15038,-0.75188c0.07726,-0.32726 0.2235,-0.42462 0.30075,-0.75188c0.06911,-0.29271 0,-0.6015 0,-1.05263c0,-0.15038 0.03455,-0.30478 0,-0.45113c-0.07726,-0.32726 -0.15038,-0.6015 -0.15038,-0.90225c0,-0.45113 0,-0.90225 0,-1.05263c0,-0.15038 0,-0.45113 0,-0.6015c0,-0.15038 -0.1151,-0.32365 0,-0.6015c0.08138,-0.19648 0.24321,-0.46257 0.30074,-0.6015c0.16277,-0.39295 0.62947,-0.4049 0.90225,-0.6015c0.34505,-0.24869 0.46585,-0.5751 0.75188,-0.75188c0.12791,-0.07906 0.27425,-0.07312 0.60149,-0.15038c0.14635,-0.03455 0.45113,0 0.60151,0l0.15038,0l0.15038,0l0.15038,0"/>
  <path fill="none" stroke="#000000" stroke-width="2.5" stroke-opacity="null" fill-opacity="null" id="svg_109" d="m37.9808,61.25941c0,-0.16211 0.30069,-0.67218 0.64552,-0.97256c0.60957,-0.53102 0.99429,-0.76936 1.77517,-1.29675c0.6696,-0.45222 1.25016,-1.19484 1.93655,-1.62093c0.61392,-0.3811 1.02051,-0.57059 1.29103,-0.81047c0.4362,-0.38678 0.61528,-0.84399 0.96827,-1.13465c0.44998,-0.37053 1.16381,-0.60204 1.61379,-0.97256c0.353,-0.29066 0.8069,-0.97256 1.12965,-1.29675c0.32276,-0.32418 0.5959,-0.67852 0.8069,-0.97256c0.26689,-0.37193 0.59798,-0.5424 0.96827,-0.81047c0.29274,-0.21193 0.48414,-0.48628 0.8069,-0.81046c0.32275,-0.32419 0.55817,-0.59868 0.64551,-0.81047c0.06176,-0.14975 0.16138,-0.16209 0.32276,-0.48628c0,0 0,0 0.16138,-0.16209l0,-0.1621l0.16138,0l0,-0.16209"/>
  <path d="m57.26266,42.59415c0.64291,-1.11974 2.16966,-2.10345 3.85739,-3.54581c2.20433,-1.88385 4.85971,-4.42295 6.91116,-6.34513c2.13,-1.9958 3.25189,-3.49602 4.17883,-4.47891c0.67137,-0.71189 1.01418,-0.80947 1.44653,-1.11973c0.19334,-0.13875 0.69852,-0.5049 0.96434,-0.93311c0.21014,-0.33853 0.32146,-0.55986 0.48218,-0.74648l0.16072,-0.18662l0,-0.18662"/>
  <path d="m57.26266,42.59415c0.64291,-1.11974 2.16966,-2.10345 3.85739,-3.54581c2.20433,-1.88385 4.85971,-4.42295 6.91116,-6.34513c2.13,-1.9958 3.25189,-3.49602 4.17883,-4.47891c0.67137,-0.71189 1.01418,-0.80947 1.44653,-1.11973c0.19334,-0.13875 0.69852,-0.5049 0.96434,-0.93311c0.21014,-0.33853 0.32146,-0.55986 0.48218,-0.74648l0.16072,-0.18662l0,-0.18662"/>
  <path d="m57.26266,42.59415c0.64291,-1.11974 2.16966,-2.10345 3.85739,-3.54581c2.20433,-1.88385 4.85971,-4.42295 6.91116,-6.34513c2.13,-1.9958 3.25189,-3.49602 4.17883,-4.47891c0.67137,-0.71189 1.01418,-0.80947 1.44653,-1.11973c0.19334,-0.13875 0.69852,-0.5049 0.96434,-0.93311c0.21014,-0.33853 0.32146,-0.55986 0.48218,-0.74648l0.16072,-0.18662l0,-0.18662"/>
  <path fill="none" stroke="#000000" stroke-width="2.5" stroke-opacity="null" fill-opacity="null" id="svg_114" d="m57.26266,42.59415c0.64291,-1.11974 2.16966,-2.10345 3.85739,-3.54581c2.20433,-1.88385 4.85971,-4.42295 6.91116,-6.34513c2.13,-1.9958 3.25189,-3.49602 4.17883,-4.47891c0.67137,-0.71189 1.01418,-0.80947 1.44653,-1.11973c0.19334,-0.13875 0.69852,-0.5049 0.96434,-0.93311c0.21014,-0.33853 0.32146,-0.55986 0.48218,-0.74648l0.16072,-0.18662l0,-0.18662" transform="rotate(-1.12814, 66.2632, 33.8229)"/>
  <path fill="#ff7f00" stroke="#000000" stroke-width="1.5" stroke-opacity="null" id="svg_189" d="m30.46669,61.94484c-0.15504,0 -0.15504,0 -0.46511,0c0,0 -0.13221,0.18187 -0.31008,0.31008c-0.28124,0.20271 -0.38361,0.33323 -0.46511,0.46511c-0.18226,0.2949 -0.62015,0.31008 -0.77519,0.46512c-0.15504,0.15504 -0.66556,0.51053 -0.77519,0.62016c-0.10963,0.10963 -0.13221,0.18187 -0.31008,0.31007c-0.28124,0.20271 -0.46511,0.31008 -0.77519,0.46512c-0.31008,0.15504 -0.46511,0.15504 -0.77519,0.31007c-0.31008,0.15504 -0.43779,0.23043 -0.77519,0.31008c-0.30178,0.07124 -0.64375,-0.11866 -0.93023,0c-0.20257,0.08391 -0.46511,0.15504 -0.62015,0.15504c-0.15504,0 -0.46926,-0.03562 -0.62015,0c-0.3374,0.07965 -0.46511,0.31007 -0.46511,0.46511c0,0 0,0.31008 0,0.31008c0,0.15504 0,0.31007 0,0.31007c0,0.15504 0.06985,0.37992 0.46511,0.77519c0.39527,0.39527 0.62015,0.62016 0.77519,0.77519c0.15504,0.15504 0.44228,0.33691 0.62015,0.46512c0.28124,0.20271 0.47692,0.25074 0.62015,0.31007c0.20257,0.08392 0.32188,0.09571 0.46512,0.15504c0.40513,0.16781 0.93414,0.60175 1.70542,0.77518c0.62366,0.14024 1.22148,0.38658 1.70542,0.46511c0.15304,0.02483 0.31008,0.15504 0.62016,0.15504c0.31008,0 0.46511,0 0.77519,0c0.31008,0 0.62616,0.0745 1.08527,0c0.48394,-0.07853 0.79178,-0.16759 1.39536,-0.31007c0.33739,-0.07965 1.09707,-0.25074 1.24031,-0.31007c0.20257,-0.08392 0.43779,-0.23043 0.77519,-0.31007c0.15089,-0.03562 0.31007,0 0.46511,0c0.31008,0 0.43779,-0.23042 0.77519,-0.31007c0.30178,-0.07124 0.35549,-0.04541 0.46512,-0.15504c0.10963,-0.10963 0.26255,-0.22617 0.46511,-0.31008c0.14324,-0.05933 0.19141,-0.33368 0.31008,-0.62016c0.08391,-0.20258 0.20045,-0.35548 0.31008,-0.46511c0.10963,-0.10963 0.15504,-0.15504 0.15504,-0.15504c0,-0.15504 0.10751,-0.3812 0.31008,-0.46511c0.14324,-0.05933 0.15504,0 0.15504,-0.15504l0.15504,0l0,-0.15504"/>
  <path fill="#000000" stroke="#000000" stroke-width="1.5" stroke-opacity="null" id="svg_185" d="m29.53646,61.94484c0.15504,-0.15504 0.59283,-0.38546 0.93023,-0.46511c0.45267,-0.10686 0.74787,-0.23043 1.08527,-0.31008c0.30178,-0.07124 0.63231,-0.12244 1.08527,-0.31007c0.32029,-0.13268 0.57262,-0.22617 0.77519,-0.31008c0.14324,-0.05933 0.15504,-0.31008 0.31008,-0.31008c0.31008,0 0.46511,-0.15504 0.62015,-0.15504c0.15504,0 0.31008,0 0.46512,0c0.31007,0 0.46511,0 0.77519,0c0.15504,0 0.46511,0 0.77519,0c0.31007,0 0.62016,0 0.77519,0c0.15504,0 0.46511,0 0.62016,0c0.15504,0 0.32188,-0.05933 0.46511,0c0.20256,0.08391 0.31007,0.15504 0.46511,0.31009c0.15504,0.15504 0.32611,0.29556 0.46511,0.4651c0.3544,0.4323 0.46511,0.62016 0.46511,0.93024c0,0.15504 0.07539,0.28275 0.15504,0.62016c0.03562,0.15089 0,0.31007 0,0.4651c0,0.15504 0.15504,0.15504 0.15504,0.31008c0,0.15504 0.01894,0.31123 0,0.46513c-0.07811,0.63445 -0.10737,0.80402 -0.31008,1.08527c-0.1282,0.17787 -0.0957,0.32188 -0.15504,0.46513c-0.08391,0.20257 -0.27446,0.6243 -0.31008,0.77518c-0.07965,0.3374 -0.15504,0.31007 -0.15504,0.31007c-0.15504,0.15504 -0.31008,0.46513 -0.46511,0.62016c-0.15504,0.15504 -0.31422,0.11942 -0.46512,0.15504c-0.3374,0.07965 -0.64375,0.2737 -0.93023,0.15504c-0.20257,-0.08391 -0.47756,-0.04818 -0.93023,-0.15504c-0.6748,-0.15929 -0.9029,-0.38548 -1.24031,-0.46512c-0.15089,-0.03562 -0.31422,-0.11942 -0.46511,-0.15504c-0.3374,-0.07965 -0.47692,-0.0957 -0.62015,-0.15504c-0.20257,-0.08391 -0.22857,-0.17818 -0.31008,-0.31007c-0.18226,-0.29491 -0.64899,-0.41745 -0.93023,-0.62016c-0.17787,-0.1282 -0.20045,-0.20045 -0.31008,-0.31007c-0.21926,-0.21926 -0.59293,-0.01517 -0.77519,-0.31007c-0.08151,-0.13187 -0.22617,-0.26254 -0.31008,-0.46512c-0.05933,-0.14323 -0.15504,-0.15504 -0.31008,-0.31007c-0.15504,-0.15504 -0.26255,-0.53625 -0.46512,-0.62016c-0.14324,-0.05933 -0.53625,-0.10751 -0.62015,-0.31007c-0.05933,-0.14324 0.10963,-0.20045 0,-0.31008c-0.10963,-0.10963 -0.04541,-0.20045 -0.15504,-0.31007c-0.10963,-0.10963 -0.31008,-0.15504 -0.31008,-0.15504l0,-0.15504l0,-0.15504"/>
  <path fill="none" stroke="#ffff00" stroke-width="1.75" id="svg_205" d="m23.48996,57.13864c-0.15504,0 -0.47728,-0.12247 -0.93023,-0.31007c-0.64058,-0.26534 -1.1443,-0.54607 -1.55038,-0.93023c-0.56314,-0.53272 -0.93023,-0.93023 -1.55038,-1.24031l-0.93023,-0.46511l-0.46512,-0.31008l-0.31008,0"/>
  <path fill="none" stroke="#ffff00" stroke-width="1.75" id="svg_206" d="m19.614,62.25491c0,0 -0.26395,-0.08737 -1.08527,-0.46513c-0.89084,-0.40974 -1.84896,-0.6973 -2.63565,-0.77518c-0.61714,-0.06111 -1.55039,-0.15504 -2.17054,-0.15504l-0.31008,0l-0.15504,0l-0.15504,0"/>
  <path fill="none" stroke="#ffff00" stroke-width="1.75" id="svg_207" d="m18.99385,68.61149c-0.15504,0 -0.45491,-0.02237 -0.77519,-0.15504c-0.45296,-0.18761 -0.93624,-0.22954 -1.39535,-0.15504c-0.48394,0.07853 -0.77519,0.15504 -1.39535,0.31007c-0.62015,0.15504 -1.09168,0.2864 -1.70542,0.46512c-0.47072,0.13707 -0.93023,0.15504 -0.93023,0.31007l-0.15504,0"/>
  <path fill="none" stroke="#ffff00" stroke-width="1.75" id="svg_209" d="m30.31165,55.43322c-0.15504,-0.15504 -0.41459,-0.4104 -0.62015,-0.93023c-0.3468,-0.87698 -0.44681,-1.56167 -0.93023,-2.32558c-0.29893,-0.47236 -0.62015,-0.93023 -0.93023,-1.08527l-0.15504,-0.15504"/>
  <path fill="none" stroke="#ffff00" stroke-width="1.75" id="svg_210" d="m37.13335,55.7433c0,-0.15504 0,-0.62016 0,-1.08527c0,-0.77519 0,-1.39535 0.15504,-2.0155c0.15504,-0.62016 0.46512,-1.24031 0.46512,-1.39535l0.15504,-0.31008l0.15504,-0.15504l0,-0.15504"/>
 </g>
</svg>
